<svg data-v-fde0c5aa="" xmlns="http://www.w3.org/2000/svg" viewBox="0 0 300 300" class="iconAboveSlogan"><!----><defs data-v-fde0c5aa=""><!----></defs><rect data-v-fde0c5aa="" fill="transparent" x="0" y="0" width="300px" height="300px" class="logo-background-square"></rect><defs data-v-fde0c5aa=""><!----></defs><g data-v-fde0c5aa="" id="1c88bb68-4ac9-4c88-89d3-63547a279f6b" fill="#000000" transform="matrix(3.777971536660061,0,0,3.777971536660061,15.768671860925988,148.13739114266846)"><path d="M10.36 13.58L10.36 3.92L7.84 3.92L7.84 8.05C7.84 8.61 7.85 9.60 7.92 10.58L4.26 3.92L1.12 3.92L1.12 13.58L3.64 13.58L3.64 9.59C3.64 9.03 3.64 8.18 3.56 7.20L7.07 13.58ZM15.47 5.91C13.02 5.91 11.45 7.43 11.45 9.84C11.45 12.24 13.02 13.78 15.47 13.78C17.92 13.78 19.49 12.24 19.49 9.84C19.49 7.43 17.92 5.91 15.47 5.91ZM15.47 12.07C14.57 12.07 14.03 11.33 14.03 9.84C14.03 8.34 14.57 7.62 15.47 7.62C16.37 7.62 16.91 8.34 16.91 9.84C16.91 11.33 16.37 12.07 15.47 12.07ZM28.43 3.29L25.91 3.29L25.91 7.07L25.42 6.27C25.05 6.05 24.32 5.91 23.70 5.91C21.78 5.91 20.16 7.35 20.16 10.01C20.16 12.22 21.42 13.78 23.45 13.78C24.21 13.78 24.93 13.62 25.35 13.31L25.91 12.49L25.91 13.58L28.43 13.58ZM24.32 12.07C23.44 12.07 22.74 11.28 22.74 9.88C22.74 8.36 23.41 7.62 24.39 7.62C25.14 7.62 25.91 8.12 25.91 9.62L25.91 9.94C25.91 11.51 25.24 12.07 24.32 12.07ZM37.27 9.74C37.27 7.81 36.01 5.91 33.52 5.91C31.02 5.91 29.53 7.69 29.53 9.87C29.53 12.50 31.23 13.78 33.38 13.78C35.29 13.78 36.69 12.82 37.13 11.13L34.65 11.13C34.55 11.70 34.12 12.07 33.40 12.07C32.69 12.07 32.14 11.72 32.02 10.47L37.23 10.47C37.25 10.22 37.27 9.97 37.27 9.74ZM33.39 7.62C34.06 7.62 34.50 8.05 34.64 8.93L32.10 8.93C32.27 8.01 32.73 7.62 33.39 7.62ZM44.16 11.07L44.97 13.58L47.71 13.58L44.23 3.92L41.15 3.92L37.66 13.58L40.33 13.58L41.15 11.07ZM42.66 6.15L43.55 9.11L41.76 9.11ZM52.78 5.91C52.30 5.91 51.72 6.12 51.31 6.57L50.78 7.62L50.78 6.10L48.26 6.10L48.26 13.58L50.78 13.58L50.78 10.84C50.78 8.58 51.46 7.88 53.35 8.01L53.35 5.95C53.17 5.92 53.02 5.91 52.78 5.91ZM57.65 5.91C55.45 5.91 53.72 7.35 53.72 9.93C53.72 12.39 55.34 13.78 57.48 13.78C59.51 13.78 61.01 12.77 61.29 10.84L58.81 10.84C58.67 11.65 58.20 12.07 57.62 12.07C56.77 12.07 56.29 11.37 56.29 9.77C56.29 8.33 56.76 7.62 57.60 7.62C58.23 7.62 58.72 7.98 58.83 8.96L61.26 8.96C61.19 7.28 59.85 5.91 57.65 5.91ZM69.87 7.94C69.68 6.64 68.77 5.91 67.23 5.91C66.54 5.91 66.01 6.06 65.55 6.34L64.88 7.27L64.88 3.22L62.36 3.22L62.36 13.58L64.88 13.58L64.88 10.05C64.88 8.36 65.42 7.62 66.19 7.62C66.95 7.62 67.34 8.04 67.40 8.75C67.42 9.13 67.42 9.53 67.42 9.77L67.42 13.58L69.94 13.58L69.94 9.35C69.94 8.75 69.93 8.32 69.87 7.94Z"></path></g><defs data-v-fde0c5aa=""><linearGradient data-v-fde0c5aa="" gradientTransform="rotate(25)" id="ef61980b-1d48-40e8-ae0b-f04c85e9fb01" x1="0%" y1="0%" x2="100%" y2="0%"><stop data-v-fde0c5aa="" offset="0%" stop-color="#21690F" stop-opacity="1"></stop><stop data-v-fde0c5aa="" offset="100%" stop-color="#88C848" stop-opacity="1"></stop></linearGradient></defs><g data-v-fde0c5aa="" id="4acbdbde-7852-49ae-8193-81b3d90f92c1" stroke="none" fill="url(#ef61980b-1d48-40e8-ae0b-f04c85e9fb01)" transform="matrix(1.3350270695679503,0,0,1.3350270695679503,83.24864652160248,46.18051058991007)"><path d="M35 34.9C20.9 41.4 11.1 55.6 11.1 72h3.8c0-17.3 12-31.9 28.1-35.9-15.5 4.6-26.8 19-26.8 35.9h3.5c0-17.6 13.4-32.1 30.5-33.8C33.9 40.8 21.4 54.9 21.4 72h3.3c0-17.1 13.9-31 31-31h1.1c-16.8.4-30.3 14.2-30.3 31h3c0-15.4 12.5-28 28-28 1.6 0 3.2.1 4.7.4-.9-.1-1.9-.2-2.9-.2C44 44.3 31.6 56.7 31.6 72h2.8c0-13.8 11.2-24.9 24.9-24.9 2.7 0 5.3.4 7.7 1.2-1.9-.5-3.8-.7-5.8-.7-13.5 0-24.4 11-24.4 24.4h2.5c0-12.1 9.8-21.9 21.9-21.9 3.5 0 6.8.8 9.8 2.3-2.5-1-5.1-1.6-7.9-1.6-11.7 0-21.2 9.5-21.2 21.2h2.2c0-10.4 8.5-18.9 18.9-18.9 4.1 0 7.8 1.3 10.9 3.5-2.7-1.6-5.8-2.5-9.1-2.5C55 54.1 47 62.1 47 72h2c0-8.8 7.1-15.9 15.9-15.9 4.4 0 8.4 1.8 11.3 4.7-2.6-2.2-5.8-3.5-9.4-3.5-8.1 0-14.7 6.6-14.7 14.7h1.8c0-7.1 5.8-12.9 12.9-12.9 4.5 0 8.5 2.3 10.8 5.9-2.1-2.6-5.3-4.4-8.9-4.4-6.3 0-11.4 5.1-11.4 11.4h1.5c0-5.5 4.4-9.9 9.9-9.9 4.5 0 8.3 3 9.5 7.1-1.2-3.1-4.1-5.3-7.6-5.3-4.5 0-8.1 3.6-8.1 8.1h1.2c0-3.8 3.1-6.9 6.9-6.9 3.1 0 5.7 2.1 6.6 4.9-.8-1.7-2.5-2.9-4.5-2.9-2.7 0-4.9 2.2-4.9 4.9h1c0-2.1 1.7-3.9 3.9-3.9s3.9 1.7 3.9 3.9H94c0-24.3-19.7-44-44-44S6 47.7 6 72h4c0-16.7 10.3-31.1 25-37.1z"></path></g><defs data-v-fde0c5aa=""><!----></defs><g data-v-fde0c5aa="" id="c406af4b-386d-448f-a205-ef56ad685322" fill="#000000" transform="matrix(0.48642984839566505,0,0,0.48642984839566505,52.363799641869356,208.59261853176736)"><path d="M0.28 3.77L0.28 3.77L0.28 3.77Q0.28 3.68 0.38 3.60L0.38 3.60L0.38 3.60Q0.48 3.53 0.63 3.53L0.63 3.53L0.63 3.53Q0.71 3.53 0.91 3.54L0.91 3.54L0.91 3.54Q1.11 3.54 1.16 3.54L1.16 3.54L1.16 3.54Q1.37 3.54 1.55 3.53L1.55 3.53L1.55 3.53Q1.74 3.51 1.85 3.51L1.85 3.51L1.85 3.51Q1.97 3.51 2.14 3.59L2.14 3.59L2.14 3.59Q2.31 3.67 2.34 3.75L2.34 3.75L2.34 3.75Q2.37 3.79 2.49 3.94L2.49 3.94L2.49 3.94Q2.62 4.09 2.83 4.33L2.83 4.33L2.83 4.33Q3.04 4.56 3.21 4.79L3.21 4.79L3.21 4.79Q5.11 7.27 8.30 10.77L8.30 10.77L8.30 10.77Q8.39 10.86 8.51 10.99L8.51 10.99L8.51 10.99Q8.62 11.12 8.67 11.18L8.67 11.18L8.67 11.18Q8.72 11.24 8.78 11.30L8.78 11.30L8.78 11.30Q8.83 11.35 8.87 11.38L8.87 11.38L8.87 11.38Q8.90 11.40 8.93 11.40L8.93 11.40L8.93 11.40Q9.07 11.40 9.07 10.53L9.07 10.53L9.07 8.89L9.07 8.89Q9.07 7.95 9.06 7.31L9.06 7.31L9.06 7.31Q9.06 6.66 9.05 6.38L9.05 6.38L9.05 6.38Q9.04 6.09 9.04 6.02L9.04 6.02L9.04 5.92L9.04 5.92Q9.04 5.45 8.98 5.11L8.98 5.11L8.98 5.11Q8.92 4.77 8.83 4.59L8.83 4.59L8.83 4.59Q8.75 4.41 8.59 4.28L8.59 4.28L8.59 4.28Q8.43 4.16 8.32 4.12L8.32 4.12L8.32 4.12Q8.20 4.09 7.99 4.05L7.99 4.05L7.99 4.05Q7.78 4.00 7.70 3.98L7.70 3.98L7.70 3.98Q7.42 3.89 7.42 3.74L7.42 3.74L7.42 3.74Q7.42 3.53 7.69 3.53L7.69 3.53L7.69 3.53Q7.77 3.53 8.36 3.54L8.36 3.54L8.36 3.54Q8.95 3.54 9.02 3.54L9.02 3.54L9.02 3.54Q9.35 3.54 9.77 3.53L9.77 3.53L9.77 3.53Q10.18 3.51 10.28 3.51L10.28 3.51L10.28 3.51Q10.51 3.51 10.61 3.56L10.61 3.56L10.61 3.56Q10.70 3.61 10.70 3.75L10.70 3.75L10.70 3.75Q10.70 3.81 10.62 3.86L10.62 3.86L10.62 3.86Q10.54 3.91 10.46 3.94L10.46 3.94L10.46 3.94Q10.37 3.98 10.29 4.00L10.29 4.00L10.21 4.03L10.21 4.03Q9.74 4.28 9.74 5.61L9.74 5.61L9.74 6.15L9.74 6.15Q9.74 7.21 9.67 9.83L9.67 9.83L9.67 9.83Q9.59 12.46 9.59 13.08L9.59 13.08L9.59 13.36L9.59 13.36Q9.59 13.68 9.39 13.68L9.39 13.68L9.39 13.68Q9.27 13.68 9.17 13.58L9.17 13.58L9.17 13.58Q4.52 8.19 3.62 7.17L3.62 7.17L3.62 7.17Q2.72 6.16 2.62 6.16L2.62 6.16L2.62 6.16Q2.48 6.16 2.48 7.11L2.48 7.11L2.48 7.11Q2.48 8.44 2.42 9.97L2.42 9.97L2.42 9.97Q2.37 11.51 2.37 11.65L2.37 11.65L2.37 11.65Q2.37 12.28 2.58 12.61L2.58 12.61L2.58 12.61Q2.80 12.94 3.05 12.98L3.05 12.98L3.05 12.98Q3.30 13.02 3.52 13.07L3.52 13.07L3.52 13.07Q3.74 13.12 3.74 13.26L3.74 13.26L3.74 13.26Q3.74 13.41 3.69 13.45L3.69 13.45L3.69 13.45Q3.64 13.50 3.51 13.50L3.51 13.50L3.51 13.50Q3.42 13.50 3.07 13.48L3.07 13.48L3.07 13.48Q2.73 13.47 2.02 13.47L2.02 13.47L2.02 13.47Q1.89 13.47 1.50 13.48L1.50 13.48L1.50 13.48Q1.11 13.50 0.83 13.50L0.83 13.50L0.83 13.50Q0.52 13.50 0.52 13.27L0.52 13.27L0.52 13.27Q0.52 13.15 0.70 13.11L0.70 13.11L0.70 13.11Q0.88 13.08 1.15 12.89L1.15 12.89L1.15 12.89Q1.41 12.71 1.55 12.21L1.55 12.21L1.55 12.21Q1.64 11.89 1.76 9.60L1.76 9.60L1.76 9.60Q1.89 7.32 1.89 6.45L1.89 6.45L1.89 6.45Q1.89 5.25 1.55 4.65L1.55 4.65L1.55 4.65Q1.22 4.06 0.46 3.98L0.46 3.98L0.46 3.98Q0.28 3.96 0.28 3.77ZM18.79 8.69L18.79 8.69L18.79 8.69Q18.79 6.34 20.20 4.84L20.20 4.84L20.20 4.84Q21.62 3.33 24.21 3.33L24.21 3.33L24.21 3.33Q25.41 3.33 26.38 3.68L26.38 3.68L26.38 3.68Q27.34 4.03 27.90 4.54L27.90 4.54L27.90 4.54Q28.46 5.05 28.84 5.71L28.84 5.71L28.84 5.71Q29.22 6.37 29.36 6.92L29.36 6.92L29.36 6.92Q29.50 7.48 29.50 7.95L29.50 7.95L29.50 7.95Q29.50 9.86 28.76 11.16L28.76 11.16L28.76 11.16Q28.01 12.47 26.80 13.07L26.80 13.07L26.80 13.07Q25.59 13.66 24.01 13.66L24.01 13.66L24.01 13.66Q22.34 13.66 21.13 12.94L21.13 12.94L21.13 12.94Q19.92 12.21 19.36 11.10L19.36 11.10L19.36 11.10Q18.79 10.00 18.79 8.69ZM20.02 7.98L20.02 7.98L20.02 7.98Q20.02 8.54 20.17 9.19L20.17 9.19L20.17 9.19Q20.33 9.84 20.68 10.54L20.68 10.54L20.68 10.54Q21.03 11.23 21.53 11.78L21.53 11.78L21.53 11.78Q22.02 12.33 22.79 12.69L22.79 12.69L22.79 12.69Q23.55 13.05 24.46 13.05L24.46 13.05L24.46 13.05Q24.93 13.05 25.46 12.90L25.46 12.90L25.46 12.90Q25.98 12.75 26.50 12.45L26.50 12.45L26.50 12.45Q27.02 12.14 27.43 11.70L27.43 11.70L27.43 11.70Q27.83 11.26 28.09 10.62L28.09 10.62L28.09 10.62Q28.35 9.98 28.35 9.24L28.35 9.24L28.35 9.24Q28.35 6.71 27.02 5.30L27.02 5.30L27.02 5.30Q25.69 3.89 23.73 3.89L23.73 3.89L23.73 3.89Q22.19 3.89 21.11 4.93L21.11 4.93L21.11 4.93Q20.02 5.96 20.02 7.98ZM37.39 3.64L37.39 3.64L37.39 3.64Q37.39 3.51 37.51 3.49L37.51 3.49L37.51 3.49Q37.63 3.47 38.11 3.47L38.11 3.47L39.33 3.47L39.33 3.47Q39.68 3.47 40.61 3.44L40.61 3.44L40.61 3.44Q41.55 3.42 42.06 3.42L42.06 3.42L42.06 3.42Q43.02 3.42 43.99 3.71L43.99 3.71L43.99 3.71Q44.95 4.00 45.77 4.56L45.77 4.56L45.77 4.56Q46.58 5.11 47.08 6.00L47.08 6.00L47.08 6.00Q47.59 6.89 47.59 7.98L47.59 7.98L47.59 7.98Q47.59 8.96 47.45 9.68L47.45 9.68L47.45 9.68Q47.32 10.40 47.01 10.93L47.01 10.93L47.01 10.93Q46.70 11.45 46.40 11.78L46.40 11.78L46.40 11.78Q46.09 12.11 45.56 12.56L45.56 12.56L45.56 12.56Q45.14 12.89 44.34 13.19L44.34 13.19L44.34 13.19Q43.54 13.48 42.70 13.48L42.70 13.48L42.70 13.48Q42.62 13.48 41.27 13.45L41.27 13.45L41.27 13.45Q39.93 13.41 39.34 13.41L39.34 13.41L39.34 13.41Q38.85 13.41 38.43 13.45L38.43 13.45L38.43 13.45Q38.01 13.48 37.94 13.48L37.94 13.48L37.94 13.48Q37.60 13.48 37.60 13.30L37.60 13.30L37.60 13.30Q37.60 13.19 37.65 13.14L37.65 13.14L37.65 13.14Q37.70 13.09 37.86 13.05L37.86 13.05L37.86 13.05Q38.02 13.01 38.09 12.98L38.09 12.98L38.09 12.98Q38.32 12.88 38.51 12.61L38.51 12.61L38.51 12.61Q38.70 12.33 38.70 12.07L38.70 12.07L38.70 12.07Q38.70 11.28 38.70 10.07L38.70 10.07L38.70 10.07Q38.71 8.85 38.71 8.27L38.71 8.27L38.71 8.27Q38.71 7.77 38.70 6.70L38.70 6.70L38.70 6.70Q38.70 5.63 38.70 4.72L38.70 4.72L38.70 4.72Q38.70 4.48 38.47 4.23L38.47 4.23L38.47 4.23Q38.23 3.99 37.95 3.98L37.95 3.98L37.95 3.98Q37.76 3.96 37.67 3.95L37.67 3.95L37.67 3.95Q37.58 3.93 37.49 3.86L37.49 3.86L37.49 3.86Q37.39 3.78 37.39 3.64ZM39.87 11.47L39.87 11.47L39.87 11.47Q39.87 11.73 39.88 11.90L39.88 11.90L39.88 11.90Q39.89 12.07 39.94 12.21L39.94 12.21L39.94 12.21Q39.98 12.35 40.01 12.40L40.01 12.40L40.01 12.40Q40.04 12.46 40.18 12.53L40.18 12.53L40.18 12.53Q40.32 12.60 40.40 12.62L40.40 12.62L40.40 12.62Q40.47 12.64 40.73 12.71L40.73 12.71L40.73 12.71Q40.98 12.78 41.15 12.82L41.15 12.82L41.15 12.82Q41.64 12.96 42.17 12.96L42.17 12.96L42.45 12.96L42.45 12.96Q43.40 12.96 44.07 12.69L44.07 12.69L44.07 12.69Q44.74 12.42 45.36 11.83L45.36 11.83L45.36 11.83Q46.40 10.84 46.40 8.61L46.40 8.61L46.40 8.61Q46.40 7.49 45.96 6.58L45.96 6.58L45.96 6.58Q45.51 5.67 44.80 5.13L44.80 5.13L44.80 5.13Q44.09 4.59 43.26 4.30L43.26 4.30L43.26 4.30Q42.43 4.02 41.59 4.02L41.59 4.02L41.59 4.02Q41.22 4.02 41.04 4.02L41.04 4.02L41.04 4.02Q40.87 4.02 40.64 4.05L40.64 4.05L40.64 4.05Q40.40 4.09 40.33 4.11L40.33 4.11L40.33 4.11Q40.25 4.13 40.14 4.25L40.14 4.25L40.14 4.25Q40.03 4.37 40.01 4.45L40.01 4.45L40.01 4.45Q39.98 4.54 39.95 4.78L39.95 4.78L39.95 4.78Q39.91 5.03 39.91 5.21L39.91 5.21L39.91 5.21Q39.91 5.39 39.91 5.80L39.91 5.80L39.91 5.80Q39.91 6.10 39.90 7.24L39.90 7.24L39.90 7.24Q39.89 8.39 39.89 8.48L39.89 8.48L39.89 8.48Q39.89 9.32 39.88 10.30L39.88 10.30L39.88 10.30Q39.87 11.28 39.87 11.47ZM55.48 3.65L55.48 3.65L55.48 3.65Q55.48 3.46 55.87 3.46L55.87 3.46L55.87 3.46Q55.93 3.46 56.06 3.47L56.06 3.47L56.06 3.47Q56.18 3.49 56.25 3.49L56.25 3.49L56.25 3.49Q56.29 3.49 57.57 3.52L57.57 3.52L57.57 3.52Q58.84 3.56 59.67 3.56L59.67 3.56L59.67 3.56Q59.96 3.56 61.12 3.53L61.12 3.53L61.12 3.53Q62.27 3.50 62.47 3.50L62.47 3.50L62.47 3.50Q62.73 3.50 62.73 3.82L62.73 3.82L62.73 3.82Q62.73 3.91 62.65 4.38L62.65 4.38L62.65 4.38Q62.57 4.84 62.57 5.25L62.57 5.25L62.57 5.25Q62.57 5.38 62.50 5.47L62.50 5.47L62.50 5.47Q62.43 5.56 62.34 5.56L62.34 5.56L62.34 5.56Q62.13 5.56 62.13 5.26L62.13 5.26L62.13 5.26Q62.13 4.89 61.89 4.58L61.89 4.58L61.89 4.58Q61.66 4.27 61.31 4.26L61.31 4.26L61.31 4.26Q60.05 4.16 59.37 4.16L59.37 4.16L59.01 4.16L59.01 4.16Q58.28 4.16 58.16 4.26L58.16 4.26L58.16 4.26Q58.04 4.37 58.02 5.01L58.02 5.01L58.02 5.01Q57.96 6.02 57.96 7.35L57.96 7.35L57.96 7.35Q57.96 8.05 58.23 8.06L58.23 8.06L58.58 8.06L59.16 8.06L59.60 8.06L59.60 8.06Q60.44 8.06 60.72 8.01L60.72 8.01L60.72 8.01Q61.00 7.95 61.22 7.80L61.22 7.80L61.22 7.80Q61.49 7.62 61.54 7.28L61.54 7.28L61.54 7.28Q61.59 7.04 61.74 7.04L61.74 7.04L61.74 7.04Q61.87 7.04 61.89 7.08L61.89 7.08L61.89 7.08Q61.92 7.13 61.92 7.27L61.92 7.27L61.92 7.27Q61.92 7.36 61.87 7.91L61.87 7.91L61.87 7.91Q61.81 8.46 61.81 8.74L61.81 8.74L61.81 8.74Q61.81 9.00 61.83 9.24L61.83 9.24L61.83 9.24Q61.85 9.48 61.85 9.59L61.85 9.59L61.85 9.59Q61.85 9.94 61.75 9.94L61.75 9.94L61.75 9.94Q61.54 9.94 61.45 9.60L61.45 9.60L61.45 9.60Q61.25 9.02 61.10 8.92L61.10 8.92L61.10 8.92Q60.80 8.72 59.75 8.72L59.75 8.72L59.75 8.72Q59.33 8.72 59.07 8.72L59.07 8.72L59.07 8.72Q58.81 8.72 58.74 8.71L58.74 8.71L58.74 8.71Q58.66 8.71 58.61 8.71L58.61 8.71L58.61 8.71Q58.56 8.71 58.52 8.71L58.52 8.71L58.52 8.71Q57.95 8.71 57.95 8.97L57.95 8.97L57.95 8.97Q57.95 9.38 57.93 9.99L57.93 9.99L57.93 9.99Q57.92 10.60 57.92 10.99L57.92 10.99L57.92 11.55L57.92 11.55Q57.92 12.56 58.25 12.66L58.25 12.66L58.25 12.66Q58.60 12.77 58.86 12.77L58.86 12.77L58.86 12.77Q59.91 12.77 60.70 12.67L60.70 12.67L60.70 12.67Q61.49 12.57 61.89 12.42L61.89 12.42L61.89 12.42Q62.29 12.28 62.55 12.10L62.55 12.10L62.55 12.10Q62.82 11.93 62.90 11.78L62.90 11.78L62.90 11.78Q62.97 11.63 63.05 11.54L63.05 11.54L63.05 11.54Q63.13 11.44 63.21 11.44L63.21 11.44L63.21 11.44Q63.38 11.44 63.38 11.68L63.38 11.68L63.38 11.68Q63.38 12.28 62.78 12.89L62.78 12.89L62.78 12.89Q62.17 13.51 61.73 13.51L61.73 13.51L61.73 13.51Q60.72 13.51 59.45 13.44L59.45 13.44L59.45 13.44Q58.18 13.37 57.88 13.37L57.88 13.37L57.88 13.37Q57.48 13.37 56.90 13.43L56.90 13.43L56.90 13.43Q56.31 13.50 55.97 13.50L55.97 13.50L55.97 13.50Q55.68 13.50 55.68 13.36L55.68 13.36L55.68 13.36Q55.68 13.23 55.68 13.19L55.68 13.19L55.68 13.19Q55.68 13.15 55.72 13.12L55.72 13.12L55.72 13.12Q55.76 13.09 55.81 13.08L55.81 13.08L55.81 13.08Q55.86 13.08 55.99 13.03L55.99 13.03L55.99 13.03Q56.13 12.99 56.28 12.92L56.28 12.92L56.28 12.92Q56.62 12.75 56.72 12.26L56.72 12.26L56.72 12.26Q56.83 11.77 56.83 10.21L56.83 10.21L56.83 8.47L56.83 8.47Q56.83 8.09 56.85 7.29L56.85 7.29L56.85 7.29Q56.87 6.50 56.87 6.05L56.87 6.05L56.87 6.05Q56.87 5.67 56.84 4.77L56.84 4.77L56.84 4.77Q56.83 4.37 56.49 4.14L56.49 4.14L56.49 4.14Q56.15 3.92 55.71 3.91L55.71 3.91L55.71 3.91Q55.48 3.91 55.48 3.65ZM71.85 13.15L71.85 13.15Q71.41 12.84 71.41 12.67L71.41 12.67L71.41 12.67Q71.41 12.50 71.85 12.12L71.85 12.12L71.85 12.12Q71.90 12.07 72.01 11.93L72.01 11.93L72.01 11.93Q72.11 11.79 72.22 11.71L72.22 11.71L72.22 11.71Q72.32 11.63 72.44 11.63L72.44 11.63L72.44 11.63Q72.55 11.63 73.01 12.18L73.01 12.18L73.01 12.18Q73.05 12.22 73.17 12.33L73.17 12.33L73.17 12.33Q73.29 12.43 73.36 12.52L73.36 12.52L73.36 12.52Q73.43 12.61 73.43 12.67L73.43 12.67L73.43 12.67Q73.43 12.74 73.36 12.82L73.36 12.82L73.36 12.82Q73.29 12.89 73.15 13.01L73.15 13.01L73.15 13.01Q73.01 13.12 72.94 13.17L72.94 13.17L72.94 13.17Q72.88 13.23 72.78 13.37L72.78 13.37L72.78 13.37Q72.67 13.51 72.58 13.59L72.58 13.59L72.58 13.59Q72.49 13.66 72.41 13.66L72.41 13.66L72.41 13.66Q72.28 13.66 72.09 13.42L72.09 13.42L72.09 13.42Q71.89 13.17 71.85 13.15L71.85 13.15ZM80.35 15.60L80.35 15.60L80.35 15.60Q80.35 15.39 80.51 15.11L80.51 15.11L80.51 15.11Q80.67 14.83 80.78 14.83L80.78 14.83L80.78 14.83Q80.86 14.83 81.08 15.06L81.08 15.06L81.08 15.06Q81.30 15.30 81.59 15.30L81.59 15.30L81.59 15.30Q82.36 15.30 82.56 14.21L82.56 14.21L82.56 14.21Q82.74 13.26 82.74 12.52L82.74 12.52L82.74 12.52Q82.74 12.36 82.74 11.94L82.74 11.94L82.74 11.94Q82.74 11.52 82.74 11.16L82.74 11.16L82.73 10.79L82.73 10.79Q82.73 10.51 82.72 10.30L82.72 10.30L82.72 10.30Q82.71 10.09 82.71 9.86L82.71 9.86L82.71 9.86Q82.70 9.62 82.69 8.64L82.69 8.64L82.69 8.64Q82.68 7.66 82.68 6.02L82.68 6.02L82.68 6.02Q82.68 5.12 82.63 4.63L82.63 4.63L82.63 4.63Q82.59 4.30 82.26 4.13L82.26 4.13L82.26 4.13Q81.93 3.96 81.56 3.95L81.56 3.95L81.56 3.95Q81.26 3.93 81.26 3.70L81.26 3.70L81.26 3.70Q81.26 3.46 81.66 3.46L81.66 3.46L81.66 3.46Q81.80 3.46 82.30 3.50L82.30 3.50L82.30 3.50Q82.80 3.54 83.24 3.54L83.24 3.54L83.24 3.54Q83.51 3.54 83.71 3.54L83.71 3.54L83.71 3.54Q83.90 3.53 84.38 3.53L84.38 3.53L84.38 3.53Q84.77 3.53 84.77 3.71L84.77 3.71L84.77 3.71Q84.77 3.84 84.13 4.10L84.13 4.10L84.13 4.10Q83.83 4.21 83.83 5.05L83.83 5.05L83.83 5.70L83.83 5.70Q83.83 8.02 83.83 9.50L83.83 9.50L83.83 9.50Q83.82 10.98 83.82 11.40L83.82 11.40L83.82 11.40Q83.82 11.82 83.81 12.07L83.81 12.07L83.81 12.07Q83.80 12.32 83.80 12.47L83.80 12.47L83.80 12.47Q83.80 14.07 82.94 15.10L82.94 15.10L82.94 15.10Q82.08 16.13 80.91 16.13L80.91 16.13L80.91 16.13Q80.35 16.13 80.35 15.60ZM92.86 10.82L92.86 10.82L92.86 10.82Q92.86 10.53 93.06 10.53L93.06 10.53L93.06 10.53Q93.24 10.53 93.28 10.67L93.28 10.67L93.28 10.67Q93.42 11.00 93.54 11.25L93.54 11.25L93.54 11.25Q93.66 11.49 93.93 11.85L93.93 11.85L93.93 11.85Q94.19 12.21 94.50 12.44L94.50 12.44L94.50 12.44Q94.81 12.67 95.29 12.84L95.29 12.84L95.29 12.84Q95.77 13.01 96.35 13.01L96.35 13.01L96.35 13.01Q97.40 13.01 98.04 12.45L98.04 12.45L98.04 12.45Q98.67 11.90 98.67 11.00L98.67 11.00L98.67 11.00Q98.67 10.35 98.24 9.90L98.24 9.90L98.24 9.90Q97.80 9.46 97.24 9.27L97.24 9.27L97.24 9.27Q96.68 9.09 95.82 8.77L95.82 8.77L95.82 8.77Q94.96 8.46 94.42 8.13L94.42 8.13L94.42 8.13Q93.14 7.38 93.14 6.08L93.14 6.08L93.14 6.08Q93.14 4.83 94.05 4.08L94.05 4.08L94.05 4.08Q94.95 3.33 96.39 3.33L96.39 3.33L96.39 3.33Q96.92 3.33 97.66 3.56L97.66 3.56L97.66 3.56Q98.39 3.79 98.41 3.79L98.41 3.79L98.41 3.79Q98.45 3.79 98.56 3.74L98.56 3.74L98.56 3.74Q98.67 3.68 98.73 3.68L98.73 3.68L98.73 3.68Q98.91 3.68 98.94 3.79L98.94 3.79L98.94 3.79Q99.23 5.49 99.23 5.70L99.23 5.70L99.23 5.70Q99.23 6.09 99.04 6.09L99.04 6.09L99.04 6.09Q98.91 6.09 98.84 5.89L98.84 5.89L98.84 5.89Q98.67 5.49 98.51 5.24L98.51 5.24L98.51 5.24Q98.35 4.98 98.28 4.91L98.28 4.91L98.28 4.91Q98.21 4.84 97.92 4.58L97.92 4.58L97.92 4.58Q97.16 3.91 96.08 3.91L96.08 3.91L96.08 3.91Q95.21 3.91 94.63 4.33L94.63 4.33L94.63 4.33Q94.04 4.75 94.04 5.46L94.04 5.46L94.04 5.46Q94.04 6.09 94.38 6.50L94.38 6.50L94.38 6.50Q94.72 6.90 95.30 7.13L95.30 7.13L95.30 7.13Q95.87 7.35 96.50 7.55L96.50 7.55L96.50 7.55Q97.13 7.74 97.84 8.09L97.84 8.09L97.84 8.09Q98.55 8.44 99.01 8.93L99.01 8.93L99.01 8.93Q99.57 9.53 99.57 10.43L99.57 10.43L99.57 10.43Q99.57 11.90 98.63 12.76L98.63 12.76L98.63 12.76Q97.69 13.62 96.31 13.62L96.31 13.62L96.31 13.62Q95.34 13.62 94.75 13.52L94.75 13.52L94.75 13.52Q94.16 13.41 93.55 13.09L93.55 13.09L93.55 13.09Q93.37 12.98 93.11 12.00L93.11 12.00L93.11 12.00Q92.86 11.02 92.86 10.82ZM117.64 3.72L117.64 3.72L117.64 3.72Q117.64 3.51 117.77 3.51L117.77 3.51L117.77 3.51Q117.81 3.51 117.95 3.52L117.95 3.52L117.95 3.52Q118.09 3.53 118.33 3.53L118.33 3.53L118.33 3.53Q118.61 3.53 119.44 3.52L119.44 3.52L119.44 3.52Q120.27 3.51 120.37 3.51L120.37 3.51L120.37 3.51Q120.69 3.51 121.18 3.49L121.18 3.49L121.18 3.49Q121.67 3.47 121.91 3.47L121.91 3.47L121.91 3.47Q123.19 3.47 124.04 4.08L124.04 4.08L124.04 4.08Q124.89 4.69 124.89 5.81L124.89 5.81L124.89 5.81Q124.89 6.22 124.75 6.57L124.75 6.57L124.75 6.57Q124.60 6.93 124.40 7.15L124.40 7.15L124.40 7.15Q124.19 7.38 123.99 7.54L123.99 7.54L123.99 7.54Q123.79 7.70 123.64 7.79L123.64 7.79L123.64 7.79Q123.49 7.88 123.49 7.90L123.49 7.90L123.49 7.90Q123.49 7.94 123.73 8.00L123.73 8.00L123.73 8.00Q123.97 8.06 124.31 8.21L124.31 8.21L124.31 8.21Q124.64 8.36 124.97 8.61L124.97 8.61L124.97 8.61Q125.30 8.86 125.54 9.36L125.54 9.36L125.54 9.36Q125.78 9.86 125.78 10.53L125.78 10.53L125.78 10.53Q125.78 11.13 125.43 11.82L125.43 11.82L125.43 11.82Q125.08 12.50 124.60 12.82L124.60 12.82L124.60 12.82Q123.98 13.26 123.45 13.40L123.45 13.40L123.45 13.40Q122.92 13.55 122.16 13.55L122.16 13.55L122.16 13.55Q121.60 13.55 120.68 13.47L120.68 13.47L120.68 13.47Q119.76 13.40 119.66 13.40L119.66 13.40L119.66 13.40Q119.50 13.40 119.11 13.43L119.11 13.43L119.11 13.43Q118.71 13.45 118.45 13.45L118.45 13.45L118.26 13.45L118.26 13.45Q117.96 13.45 117.96 13.24L117.96 13.24L117.96 13.24Q117.96 13.05 118.12 13.05L118.12 13.05L118.12 13.05Q118.20 13.05 118.30 13.04L118.30 13.04L118.30 13.04Q118.40 13.03 118.44 13.03L118.44 13.03L118.44 13.03Q118.57 13.03 118.69 12.94L118.69 12.94L118.69 12.94Q118.80 12.85 118.93 12.54L118.93 12.54L118.93 12.54Q119.06 12.22 119.07 11.73L119.07 11.73L119.07 11.73Q119.11 10.82 119.11 7.36L119.11 7.36L119.11 4.98L119.11 4.98Q119.11 4.89 119.08 4.75L119.08 4.75L119.08 4.75Q119.04 4.62 118.94 4.40L118.94 4.40L118.94 4.40Q118.83 4.19 118.56 4.04L118.56 4.04L118.56 4.04Q118.29 3.89 117.88 3.89L117.88 3.89L117.88 3.89Q117.64 3.89 117.64 3.72ZM120.18 12.15L120.18 12.15L120.18 12.15Q120.18 12.99 121.55 12.99L121.55 12.99L121.87 12.99L121.87 12.99Q122.63 12.99 123.07 12.92L123.07 12.92L123.07 12.92Q123.73 12.81 124.16 12.24L124.16 12.24L124.16 12.24Q124.59 11.66 124.59 10.86L124.59 10.86L124.59 10.86Q124.59 10.18 124.33 9.68L124.33 9.68L124.33 9.68Q124.08 9.18 123.76 8.93L123.76 8.93L123.76 8.93Q123.44 8.68 123.00 8.54L123.00 8.54L123.00 8.54Q122.56 8.40 122.31 8.37L122.31 8.37L122.31 8.37Q122.07 8.34 121.84 8.34L121.84 8.34L121.84 8.34Q121.39 8.34 121.11 8.34L121.11 8.34L121.11 8.34Q120.82 8.33 120.74 8.33L120.74 8.33L120.74 8.33Q120.67 8.33 120.62 8.32L120.62 8.32L120.62 8.32Q120.57 8.32 120.54 8.32L120.54 8.32L120.54 8.32Q120.41 8.32 120.36 8.35L120.36 8.35L120.36 8.35Q120.30 8.39 120.25 8.62L120.25 8.62L120.25 8.62Q120.20 8.85 120.20 9.28L120.20 9.28L120.20 9.28Q120.19 9.72 120.19 10.58L120.19 10.58L120.19 10.70L120.19 10.70Q120.19 11.21 120.19 11.54L120.19 11.54L120.19 11.54Q120.19 11.86 120.18 11.99L120.18 11.99L120.18 11.99Q120.18 12.12 120.18 12.15ZM120.26 5.40L120.26 5.81L120.26 5.81Q120.26 6.51 120.27 6.90L120.27 6.90L120.27 6.90Q120.27 7.29 120.30 7.50L120.30 7.50L120.30 7.50Q120.33 7.71 120.36 7.77L120.36 7.77L120.36 7.77Q120.39 7.83 120.44 7.83L120.44 7.83L120.44 7.83Q120.83 7.87 121.16 7.87L121.16 7.87L122.05 7.87L122.05 7.87Q122.93 7.87 123.38 7.41L123.38 7.41L123.38 7.41Q123.82 6.94 123.82 6.22L123.82 6.22L123.82 6.22Q123.82 5.43 123.08 4.70L123.08 4.70L123.08 4.70Q122.35 3.96 120.99 3.96L120.99 3.96L120.99 3.96Q120.55 3.96 120.41 4.22L120.41 4.22L120.41 4.22Q120.26 4.48 120.26 5.40L120.26 5.40ZM133.06 13.33L133.06 13.33L133.06 13.33Q133.06 13.13 133.27 13.06L133.27 13.06L133.27 13.06Q133.71 12.89 134.05 12.31L134.05 12.31L134.05 12.31Q134.39 11.73 135.72 8.83L135.72 8.83L135.72 8.83Q137.09 5.87 138.14 3.63L138.14 3.63L138.14 3.63Q138.24 3.42 138.31 3.36L138.31 3.36L138.31 3.36Q138.39 3.30 138.56 3.30L138.56 3.30L138.56 3.30Q138.68 3.30 138.73 3.36L138.73 3.36L138.73 3.36Q138.77 3.42 138.91 3.82L138.91 3.82L138.91 3.82Q138.99 4.06 139.06 4.23L139.06 4.23L139.06 4.23Q139.12 4.40 139.26 4.77L139.26 4.77L139.26 4.77Q139.40 5.15 139.57 5.56L139.57 5.56L139.57 5.56Q140.01 6.66 141.11 9.22L141.11 9.22L141.11 9.22Q142.21 11.77 142.31 11.98L142.31 11.98L142.31 11.98Q142.55 12.46 142.84 12.71L142.84 12.71L142.84 12.71Q143.14 12.95 143.35 12.97L143.35 12.97L143.35 12.97Q143.57 12.99 143.72 13.04L143.72 13.04L143.72 13.04Q143.86 13.09 143.86 13.26L143.86 13.26L143.86 13.26Q143.86 13.47 143.49 13.47L143.49 13.47L143.49 13.47Q143.33 13.47 142.88 13.43L142.88 13.43L142.88 13.43Q142.44 13.38 142.23 13.38L142.23 13.38L142.23 13.38Q141.96 13.38 141.54 13.41L141.54 13.41L141.54 13.41Q141.12 13.44 140.92 13.44L140.92 13.44L140.92 13.44Q140.49 13.44 140.37 13.40L140.37 13.40L140.37 13.40Q140.25 13.37 140.25 13.24L140.25 13.24L140.25 13.24Q140.25 13.15 140.36 13.08L140.36 13.08L140.36 13.08Q140.48 13.02 140.60 13.00L140.60 13.00L140.60 13.00Q140.73 12.98 140.84 12.87L140.84 12.87L140.84 12.87Q140.95 12.77 140.95 12.59L140.95 12.59L140.95 12.59Q140.95 12.28 140.60 11.33L140.60 11.33L140.60 11.33Q140.25 10.37 140.01 9.93L140.01 9.93L140.01 9.93Q139.89 9.69 139.44 9.69L139.44 9.69L139.44 9.69Q139.37 9.69 138.82 9.70L138.82 9.70L138.82 9.70Q138.28 9.72 137.75 9.72L137.75 9.72L137.00 9.72L137.00 9.72Q136.37 9.72 136.21 9.79L136.21 9.79L136.21 9.79Q136.05 9.86 135.93 10.12L135.93 10.12L135.93 10.12Q135.84 10.30 135.65 10.70L135.65 10.70L135.65 10.70Q135.45 11.10 135.38 11.26L135.38 11.26L135.38 11.26Q135.31 11.41 135.21 11.65L135.21 11.65L135.21 11.65Q135.10 11.90 135.06 12.05L135.06 12.05L135.06 12.05Q135.03 12.19 135.03 12.31L135.03 12.31L135.03 12.31Q135.03 12.63 135.19 12.80L135.19 12.80L135.19 12.80Q135.35 12.96 135.55 12.98L135.55 12.98L135.55 12.98Q135.74 13.01 135.91 13.06L135.91 13.06L135.91 13.06Q136.07 13.12 136.07 13.26L136.07 13.26L136.07 13.26Q136.07 13.36 136.02 13.40L136.02 13.40L136.02 13.40Q135.98 13.45 135.83 13.45L135.83 13.45L135.83 13.45Q135.74 13.45 135.34 13.45L135.34 13.45L135.34 13.45Q134.95 13.44 134.67 13.44L134.67 13.44L134.67 13.44Q134.36 13.44 133.97 13.47L133.97 13.47L133.97 13.47Q133.59 13.50 133.46 13.50L133.46 13.50L133.46 13.50Q133.06 13.50 133.06 13.33ZM136.57 8.71L136.57 8.71L136.57 8.71Q136.57 8.89 136.70 8.93L136.70 8.93L136.70 8.93Q136.82 8.97 137.28 8.97L137.28 8.97L137.72 8.97L139.05 8.96L139.05 8.96Q139.59 8.96 139.59 8.74L139.59 8.74L139.59 8.74Q139.59 8.55 138.91 7.01L138.91 7.01L138.91 7.01Q138.22 5.46 138.04 5.46L138.04 5.46L138.04 5.46Q137.91 5.46 137.24 7.01L137.24 7.01L137.24 7.01Q136.57 8.55 136.57 8.71ZM151.07 8.90L151.07 8.90L151.07 8.90Q151.07 7.38 151.66 6.16L151.66 6.16L151.66 6.16Q152.25 4.94 153.47 4.19L153.47 4.19L153.47 4.19Q154.70 3.44 156.38 3.44L156.38 3.44L156.38 3.44Q157.23 3.44 158.10 3.70L158.10 3.70L158.10 3.70Q158.97 3.95 159.49 4.20L159.49 4.20L160.01 4.47L160.01 4.47Q160.05 4.47 160.15 4.40L160.15 4.40L160.15 4.40Q160.24 4.33 160.30 4.33L160.30 4.33L160.30 4.33Q160.37 4.33 160.44 4.38L160.44 4.38L160.44 4.38Q160.51 4.44 160.51 4.55L160.51 4.55L160.51 4.55Q160.52 4.96 160.57 5.41L160.57 5.41L160.57 5.41Q160.62 5.87 160.66 6.16L160.66 6.16L160.66 6.16Q160.71 6.45 160.71 6.51L160.71 6.51L160.71 6.51Q160.71 6.76 160.54 6.76L160.54 6.76L160.54 6.76Q160.41 6.76 160.30 6.57L160.30 6.57L160.30 6.57Q158.94 4.02 156.38 4.02L156.38 4.02L156.38 4.02Q154.63 4.02 153.51 5.14L153.51 5.14L153.51 5.14Q152.39 6.26 152.39 8.06L152.39 8.06L152.39 8.06Q152.39 9.06 152.65 9.93L152.65 9.93L152.65 9.93Q152.91 10.79 153.43 11.51L153.43 11.51L153.43 11.51Q153.96 12.24 154.88 12.66L154.88 12.66L154.88 12.66Q155.81 13.08 157.04 13.08L157.04 13.08L157.04 13.08Q159.05 13.08 160.43 10.98L160.43 10.98L160.43 10.98Q160.48 10.88 160.64 10.88L160.64 10.88L160.64 10.88Q160.76 10.88 160.76 11.07L160.76 11.07L160.76 11.07Q160.76 11.23 160.71 11.49L160.71 11.49L160.71 11.49Q160.66 11.75 160.59 12.06L160.59 12.06L160.59 12.06Q160.52 12.38 160.51 12.45L160.51 12.45L160.51 12.45Q160.48 12.60 160.29 12.70L160.29 12.70L160.29 12.70Q159.53 13.06 159.10 13.24L159.10 13.24L159.10 13.24Q158.68 13.43 158.02 13.57L158.02 13.57L158.02 13.57Q157.36 13.72 156.67 13.72L156.67 13.72L156.67 13.72Q155.46 13.72 154.48 13.43L154.48 13.43L154.48 13.43Q153.50 13.13 152.87 12.66L152.87 12.66L152.87 12.66Q152.25 12.18 151.83 11.54L151.83 11.54L151.83 11.54Q151.41 10.91 151.24 10.25L151.24 10.25L151.24 10.25Q151.07 9.60 151.07 8.90ZM169.04 3.71L169.04 3.71L169.04 3.71Q169.04 3.53 169.43 3.53L169.43 3.53L169.43 3.53Q169.57 3.53 170.07 3.54L170.07 3.54L170.07 3.54Q170.58 3.56 171.01 3.56L171.01 3.56L171.01 3.56Q171.26 3.56 171.47 3.54L171.47 3.54L171.47 3.54Q171.68 3.53 172.21 3.53L172.21 3.53L172.21 3.53Q172.45 3.53 172.45 3.71L172.45 3.71L172.45 3.71Q172.45 3.77 172.38 3.81L172.38 3.81L172.38 3.81Q172.31 3.85 172.18 3.91L172.18 3.91L172.18 3.91Q172.05 3.96 171.96 4.00L171.96 4.00L171.96 4.00Q171.53 4.26 171.53 5.71L171.53 5.71L171.53 5.71Q171.53 6.47 171.51 7.17L171.51 7.17L171.51 7.17Q171.49 7.87 171.49 7.90L171.49 7.90L171.49 7.90Q171.49 8.19 171.61 8.19L171.61 8.19L171.61 8.19Q171.71 8.19 172.73 7.36L172.73 7.36L172.73 7.36Q173.75 6.52 174.76 5.55L174.76 5.55L174.76 5.55Q175.77 4.58 175.77 4.27L175.77 4.27L175.77 4.27Q175.77 4.19 175.73 4.12L175.73 4.12L175.73 4.12Q175.69 4.06 175.59 4.02L175.59 4.02L175.59 4.02Q175.49 3.98 175.42 3.96L175.42 3.96L175.42 3.96Q175.35 3.93 175.22 3.91L175.22 3.91L175.22 3.91Q175.10 3.89 175.07 3.88L175.07 3.88L175.07 3.88Q174.92 3.85 174.92 3.68L174.92 3.68L174.92 3.68Q174.92 3.53 175.14 3.53L175.14 3.53L175.14 3.53Q175.17 3.53 175.29 3.54L175.29 3.54L175.29 3.54Q175.41 3.54 175.49 3.54L175.49 3.54L175.49 3.54Q175.52 3.54 175.82 3.56L175.82 3.56L175.82 3.56Q176.12 3.57 176.33 3.57L176.33 3.57L178.07 3.53L178.07 3.53Q178.35 3.53 178.35 3.71L178.35 3.71L178.35 3.71Q178.35 3.81 178.26 3.86L178.26 3.86L178.26 3.86Q178.18 3.91 177.94 3.98L177.94 3.98L177.94 3.98Q177.70 4.05 177.53 4.12L177.53 4.12L177.53 4.12Q177.46 4.14 176.85 4.54L176.85 4.54L176.85 4.54Q176.72 4.62 175.27 5.84L175.27 5.84L175.27 5.84Q174.22 6.73 172.83 7.90L172.83 7.90L172.68 8.09L172.68 8.09Q172.68 8.16 172.83 8.32L172.83 8.32L172.83 8.32Q173.49 8.97 174.54 10.01L174.54 10.01L174.54 10.01Q176.48 11.94 177.06 12.42L177.06 12.42L177.06 12.42Q177.63 12.91 178.15 12.99L178.15 12.99L178.15 12.99Q178.56 13.05 178.61 13.16L178.61 13.16L178.61 13.16Q178.63 13.19 178.63 13.24L178.63 13.24L178.63 13.24Q178.63 13.37 178.51 13.40L178.51 13.40L178.51 13.40Q178.39 13.43 177.81 13.43L177.81 13.43L176.46 13.43L176.46 13.43Q176.36 13.43 176.31 13.41L176.31 13.41L176.31 13.41Q176.26 13.40 176.21 13.37L176.21 13.37L176.21 13.37Q176.16 13.34 176.09 13.25L176.09 13.25L176.09 13.25Q176.01 13.16 175.90 13.04L175.90 13.04L175.90 13.04Q175.80 12.92 175.58 12.68L175.58 12.68L175.58 12.68Q175.36 12.43 175.10 12.17L175.10 12.17L175.10 12.17Q172.13 9.16 171.98 9.03L171.98 9.03L171.98 9.03Q171.82 8.90 171.71 8.90L171.71 8.90L171.71 8.90Q171.51 8.90 171.51 9.28L171.51 9.28L171.51 9.32L171.51 9.32Q171.51 9.37 171.52 9.45L171.52 9.45L171.52 9.45Q171.53 9.53 171.53 9.65L171.53 9.65L171.53 9.65Q171.53 9.76 171.53 9.95L171.53 9.95L171.53 9.95Q171.53 10.14 171.53 10.36L171.53 10.36L171.53 10.36Q171.53 12.19 171.74 12.57L171.74 12.57L171.74 12.57Q172.00 13.02 172.68 13.02L172.68 13.02L172.68 13.02Q172.70 13.02 172.73 13.03L172.73 13.03L172.73 13.03Q172.76 13.03 172.79 13.03L172.79 13.03L172.79 13.03Q172.89 13.03 172.98 13.08L172.98 13.08L172.98 13.08Q173.08 13.13 173.08 13.19L173.08 13.19L173.08 13.19Q173.08 13.34 173.00 13.39L173.00 13.39L173.00 13.39Q172.93 13.44 172.73 13.44L172.73 13.44L172.73 13.44Q172.31 13.44 171.96 13.41L171.96 13.41L171.96 13.41Q171.60 13.38 171.40 13.38L171.40 13.38L171.40 13.38Q171.01 13.38 170.55 13.42L170.55 13.42L170.55 13.42Q170.09 13.45 169.86 13.45L169.86 13.45L169.86 13.45Q169.36 13.45 169.36 13.30L169.36 13.30L169.36 13.24L169.36 13.24Q169.36 13.15 169.49 13.11L169.49 13.11L169.49 13.11Q169.62 13.08 169.82 13.02L169.82 13.02L169.82 13.02Q170.02 12.96 170.13 12.85L170.13 12.85L170.13 12.85Q170.32 12.66 170.37 11.95L170.37 11.95L170.37 11.95Q170.42 11.24 170.42 9.69L170.42 9.69L170.42 7.81L170.42 7.81Q170.42 7.63 170.41 7.12L170.41 7.12L170.41 7.12Q170.39 6.61 170.39 6.30L170.39 6.30L170.39 5.66L170.39 5.66Q170.39 4.94 170.35 4.63L170.35 4.63L170.35 4.63Q170.31 4.30 170.00 4.12L170.00 4.12L170.00 4.12Q169.68 3.93 169.33 3.92L169.33 3.92L169.33 3.92Q169.04 3.91 169.04 3.71ZM186.17 3.65L186.17 3.65L186.17 3.65Q186.17 3.46 186.56 3.46L186.56 3.46L186.56 3.46Q186.62 3.46 186.75 3.47L186.75 3.47L186.75 3.47Q186.87 3.49 186.94 3.49L186.94 3.49L186.94 3.49Q186.98 3.49 188.26 3.52L188.26 3.52L188.26 3.52Q189.53 3.56 190.36 3.56L190.36 3.56L190.36 3.56Q190.65 3.56 191.81 3.53L191.81 3.53L191.81 3.53Q192.96 3.50 193.16 3.50L193.16 3.50L193.16 3.50Q193.42 3.50 193.42 3.82L193.42 3.82L193.42 3.82Q193.42 3.91 193.34 4.38L193.34 4.38L193.34 4.38Q193.26 4.84 193.26 5.25L193.26 5.25L193.26 5.25Q193.26 5.38 193.19 5.47L193.19 5.47L193.19 5.47Q193.12 5.56 193.03 5.56L193.03 5.56L193.03 5.56Q192.82 5.56 192.82 5.26L192.82 5.26L192.82 5.26Q192.82 4.89 192.58 4.58L192.58 4.58L192.58 4.58Q192.35 4.27 192.00 4.26L192.00 4.26L192.00 4.26Q190.74 4.16 190.06 4.16L190.06 4.16L189.70 4.16L189.70 4.16Q188.97 4.16 188.85 4.26L188.85 4.26L188.85 4.26Q188.73 4.37 188.71 5.01L188.71 5.01L188.71 5.01Q188.65 6.02 188.65 7.35L188.65 7.35L188.65 7.35Q188.65 8.05 188.92 8.06L188.92 8.06L189.27 8.06L189.85 8.06L190.29 8.06L190.29 8.06Q191.13 8.06 191.41 8.01L191.41 8.01L191.41 8.01Q191.69 7.95 191.91 7.80L191.91 7.80L191.91 7.80Q192.18 7.62 192.23 7.28L192.23 7.28L192.23 7.28Q192.28 7.04 192.43 7.04L192.43 7.04L192.43 7.04Q192.56 7.04 192.58 7.08L192.58 7.08L192.58 7.08Q192.61 7.13 192.61 7.27L192.61 7.27L192.61 7.27Q192.61 7.36 192.56 7.91L192.56 7.91L192.56 7.91Q192.50 8.46 192.50 8.74L192.50 8.74L192.50 8.74Q192.50 9.00 192.52 9.24L192.52 9.24L192.52 9.24Q192.54 9.48 192.54 9.59L192.54 9.59L192.54 9.59Q192.54 9.94 192.44 9.94L192.44 9.94L192.44 9.94Q192.23 9.94 192.14 9.60L192.14 9.60L192.14 9.60Q191.94 9.02 191.79 8.92L191.79 8.92L191.79 8.92Q191.49 8.72 190.44 8.72L190.44 8.72L190.44 8.72Q190.02 8.72 189.76 8.72L189.76 8.72L189.76 8.72Q189.50 8.72 189.43 8.71L189.43 8.71L189.43 8.71Q189.35 8.71 189.30 8.71L189.30 8.71L189.30 8.71Q189.25 8.71 189.21 8.71L189.21 8.71L189.21 8.71Q188.64 8.71 188.64 8.97L188.64 8.97L188.64 8.97Q188.64 9.38 188.62 9.99L188.62 9.99L188.62 9.99Q188.61 10.60 188.61 10.99L188.61 10.99L188.61 11.55L188.61 11.55Q188.61 12.56 188.94 12.66L188.94 12.66L188.94 12.66Q189.29 12.77 189.55 12.77L189.55 12.77L189.55 12.77Q190.60 12.77 191.39 12.67L191.39 12.67L191.39 12.67Q192.18 12.57 192.58 12.42L192.58 12.42L192.58 12.42Q192.98 12.28 193.24 12.10L193.24 12.10L193.24 12.10Q193.51 11.93 193.59 11.78L193.59 11.78L193.59 11.78Q193.66 11.63 193.74 11.54L193.74 11.54L193.74 11.54Q193.82 11.44 193.90 11.44L193.90 11.44L193.90 11.44Q194.07 11.44 194.07 11.68L194.07 11.68L194.07 11.68Q194.07 12.28 193.47 12.89L193.47 12.89L193.47 12.89Q192.86 13.51 192.42 13.51L192.42 13.51L192.42 13.51Q191.41 13.51 190.14 13.44L190.14 13.44L190.14 13.44Q188.87 13.37 188.57 13.37L188.57 13.37L188.57 13.37Q188.17 13.37 187.59 13.43L187.59 13.43L187.59 13.43Q187.00 13.50 186.66 13.50L186.66 13.50L186.66 13.50Q186.37 13.50 186.37 13.36L186.37 13.36L186.37 13.36Q186.37 13.23 186.37 13.19L186.37 13.19L186.37 13.19Q186.37 13.15 186.41 13.12L186.41 13.12L186.41 13.12Q186.45 13.09 186.50 13.08L186.50 13.08L186.50 13.08Q186.55 13.08 186.68 13.03L186.68 13.03L186.68 13.03Q186.82 12.99 186.97 12.92L186.97 12.92L186.97 12.92Q187.31 12.75 187.41 12.26L187.41 12.26L187.41 12.26Q187.52 11.77 187.52 10.21L187.52 10.21L187.52 8.47L187.52 8.47Q187.52 8.09 187.54 7.29L187.54 7.29L187.54 7.29Q187.56 6.50 187.56 6.05L187.56 6.05L187.56 6.05Q187.56 5.67 187.53 4.77L187.53 4.77L187.53 4.77Q187.52 4.37 187.18 4.14L187.18 4.14L187.18 4.14Q186.84 3.92 186.40 3.91L186.40 3.91L186.40 3.91Q186.17 3.91 186.17 3.65ZM201.63 3.77L201.63 3.77L201.63 3.77Q201.63 3.68 201.73 3.60L201.73 3.60L201.73 3.60Q201.82 3.53 201.98 3.53L201.98 3.53L201.98 3.53Q202.06 3.53 202.26 3.54L202.26 3.54L202.26 3.54Q202.45 3.54 202.51 3.54L202.51 3.54L202.51 3.54Q202.72 3.54 202.90 3.53L202.90 3.53L202.90 3.53Q203.08 3.51 203.20 3.51L203.20 3.51L203.20 3.51Q203.32 3.51 203.49 3.59L203.49 3.59L203.49 3.59Q203.66 3.67 203.69 3.75L203.69 3.75L203.69 3.75Q203.71 3.79 203.84 3.94L203.84 3.94L203.84 3.94Q203.97 4.09 204.18 4.33L204.18 4.33L204.18 4.33Q204.39 4.56 204.55 4.79L204.55 4.79L204.55 4.79Q206.46 7.27 209.65 10.77L209.65 10.77L209.65 10.77Q209.73 10.86 209.85 10.99L209.85 10.99L209.85 10.99Q209.97 11.12 210.02 11.18L210.02 11.18L210.02 11.18Q210.07 11.24 210.13 11.30L210.13 11.30L210.13 11.30Q210.18 11.35 210.22 11.38L210.22 11.38L210.22 11.38Q210.25 11.40 210.28 11.40L210.28 11.40L210.28 11.40Q210.42 11.40 210.42 10.53L210.42 10.53L210.42 8.89L210.42 8.89Q210.42 7.95 210.41 7.31L210.41 7.31L210.41 7.31Q210.41 6.66 210.40 6.38L210.40 6.38L210.40 6.38Q210.39 6.09 210.39 6.02L210.39 6.02L210.39 5.92L210.39 5.92Q210.39 5.45 210.33 5.11L210.33 5.11L210.33 5.11Q210.27 4.77 210.18 4.59L210.18 4.59L210.18 4.59Q210.10 4.41 209.94 4.28L209.94 4.28L209.94 4.28Q209.78 4.16 209.66 4.12L209.66 4.12L209.66 4.12Q209.55 4.09 209.34 4.05L209.34 4.05L209.34 4.05Q209.13 4.00 209.05 3.98L209.05 3.98L209.05 3.98Q208.77 3.89 208.77 3.74L208.77 3.74L208.77 3.74Q208.77 3.53 209.03 3.53L209.03 3.53L209.03 3.53Q209.12 3.53 209.71 3.54L209.71 3.54L209.71 3.54Q210.29 3.54 210.36 3.54L210.36 3.54L210.36 3.54Q210.70 3.54 211.11 3.53L211.11 3.53L211.11 3.53Q211.53 3.51 211.62 3.51L211.62 3.51L211.62 3.51Q211.86 3.51 211.95 3.56L211.95 3.56L211.95 3.56Q212.04 3.61 212.04 3.75L212.04 3.75L212.04 3.75Q212.04 3.81 211.97 3.86L211.97 3.86L211.97 3.86Q211.89 3.91 211.81 3.94L211.81 3.94L211.81 3.94Q211.72 3.98 211.64 4.00L211.64 4.00L211.55 4.03L211.55 4.03Q211.09 4.28 211.09 5.61L211.09 5.61L211.09 6.15L211.09 6.15Q211.09 7.21 211.01 9.83L211.01 9.83L211.01 9.83Q210.94 12.46 210.94 13.08L210.94 13.08L210.94 13.36L210.94 13.36Q210.94 13.68 210.74 13.68L210.74 13.68L210.74 13.68Q210.62 13.68 210.52 13.58L210.52 13.58L210.52 13.58Q205.87 8.19 204.97 7.17L204.97 7.17L204.97 7.17Q204.06 6.16 203.97 6.16L203.97 6.16L203.97 6.16Q203.83 6.16 203.83 7.11L203.83 7.11L203.83 7.11Q203.83 8.44 203.77 9.97L203.77 9.97L203.77 9.97Q203.71 11.51 203.71 11.65L203.71 11.65L203.71 11.65Q203.71 12.28 203.93 12.61L203.93 12.61L203.93 12.61Q204.15 12.94 204.40 12.98L204.40 12.98L204.40 12.98Q204.65 13.02 204.87 13.07L204.87 13.07L204.87 13.07Q205.09 13.12 205.09 13.26L205.09 13.26L205.09 13.26Q205.09 13.41 205.04 13.45L205.04 13.45L205.04 13.45Q204.99 13.50 204.86 13.50L204.86 13.50L204.86 13.50Q204.76 13.50 204.42 13.48L204.42 13.48L204.42 13.48Q204.08 13.47 203.36 13.47L203.36 13.47L203.36 13.47Q203.24 13.47 202.85 13.48L202.85 13.48L202.85 13.48Q202.45 13.50 202.17 13.50L202.17 13.50L202.17 13.50Q201.87 13.50 201.87 13.27L201.87 13.27L201.87 13.27Q201.87 13.15 202.05 13.11L202.05 13.11L202.05 13.11Q202.23 13.08 202.50 12.89L202.50 12.89L202.50 12.89Q202.76 12.71 202.90 12.21L202.90 12.21L202.90 12.21Q202.99 11.89 203.11 9.60L203.11 9.60L203.11 9.60Q203.24 7.32 203.24 6.45L203.24 6.45L203.24 6.45Q203.24 5.25 202.90 4.65L202.90 4.65L202.90 4.65Q202.57 4.06 201.81 3.98L201.81 3.98L201.81 3.98Q201.63 3.96 201.63 3.77ZM219.80 3.64L219.80 3.64L219.80 3.64Q219.80 3.51 219.92 3.49L219.92 3.49L219.92 3.49Q220.04 3.47 220.51 3.47L220.51 3.47L221.73 3.47L221.73 3.47Q222.08 3.47 223.02 3.44L223.02 3.44L223.02 3.44Q223.96 3.42 224.46 3.42L224.46 3.42L224.46 3.42Q225.43 3.42 226.39 3.71L226.39 3.71L226.39 3.71Q227.36 4.00 228.17 4.56L228.17 4.56L228.17 4.56Q228.98 5.11 229.49 6.00L229.49 6.00L229.49 6.00Q229.99 6.89 229.99 7.98L229.99 7.98L229.99 7.98Q229.99 8.96 229.86 9.68L229.86 9.68L229.86 9.68Q229.73 10.40 229.42 10.93L229.42 10.93L229.42 10.93Q229.11 11.45 228.80 11.78L228.80 11.78L228.80 11.78Q228.49 12.11 227.96 12.56L227.96 12.56L227.96 12.56Q227.54 12.89 226.74 13.19L226.74 13.19L226.74 13.19Q225.95 13.48 225.11 13.48L225.11 13.48L225.11 13.48Q225.02 13.48 223.68 13.45L223.68 13.45L223.68 13.45Q222.33 13.41 221.75 13.41L221.75 13.41L221.75 13.41Q221.26 13.41 220.84 13.45L220.84 13.45L220.84 13.45Q220.42 13.48 220.35 13.48L220.35 13.48L220.35 13.48Q220.01 13.48 220.01 13.30L220.01 13.30L220.01 13.30Q220.01 13.19 220.06 13.14L220.06 13.14L220.06 13.14Q220.11 13.09 220.27 13.05L220.27 13.05L220.27 13.05Q220.43 13.01 220.50 12.98L220.50 12.98L220.50 12.98Q220.72 12.88 220.91 12.61L220.91 12.61L220.91 12.61Q221.10 12.33 221.10 12.07L221.10 12.07L221.10 12.07Q221.10 11.28 221.11 10.07L221.11 10.07L221.11 10.07Q221.12 8.85 221.12 8.27L221.12 8.27L221.12 8.27Q221.12 7.77 221.11 6.70L221.11 6.70L221.11 6.70Q221.10 5.63 221.10 4.72L221.10 4.72L221.10 4.72Q221.10 4.48 220.87 4.23L220.87 4.23L220.87 4.23Q220.64 3.99 220.36 3.98L220.36 3.98L220.36 3.98Q220.16 3.96 220.07 3.95L220.07 3.95L220.07 3.95Q219.98 3.93 219.89 3.86L219.89 3.86L219.89 3.86Q219.80 3.78 219.80 3.64ZM222.28 11.47L222.28 11.47L222.28 11.47Q222.28 11.73 222.28 11.90L222.28 11.90L222.28 11.90Q222.29 12.07 222.34 12.21L222.34 12.21L222.34 12.21Q222.39 12.35 222.42 12.40L222.42 12.40L222.42 12.40Q222.45 12.46 222.59 12.53L222.59 12.53L222.59 12.53Q222.73 12.60 222.80 12.62L222.80 12.62L222.80 12.62Q222.88 12.64 223.13 12.71L223.13 12.71L223.13 12.71Q223.38 12.78 223.55 12.82L223.55 12.82L223.55 12.82Q224.04 12.96 224.57 12.96L224.57 12.96L224.85 12.96L224.85 12.96Q225.81 12.96 226.48 12.69L226.48 12.69L226.48 12.69Q227.15 12.42 227.77 11.83L227.77 11.83L227.77 11.83Q228.80 10.84 228.80 8.61L228.80 8.61L228.80 8.61Q228.80 7.49 228.36 6.58L228.36 6.58L228.36 6.58Q227.92 5.67 227.21 5.13L227.21 5.13L227.21 5.13Q226.49 4.59 225.67 4.30L225.67 4.30L225.67 4.30Q224.84 4.02 224.00 4.02L224.00 4.02L224.00 4.02Q223.62 4.02 223.45 4.02L223.45 4.02L223.45 4.02Q223.27 4.02 223.04 4.05L223.04 4.05L223.04 4.05Q222.81 4.09 222.73 4.11L222.73 4.11L222.73 4.11Q222.66 4.13 222.54 4.25L222.54 4.25L222.54 4.25Q222.43 4.37 222.41 4.45L222.41 4.45L222.41 4.45Q222.39 4.54 222.35 4.78L222.35 4.78L222.35 4.78Q222.32 5.03 222.32 5.21L222.32 5.21L222.32 5.21Q222.32 5.39 222.32 5.80L222.32 5.80L222.32 5.80Q222.32 6.10 222.31 7.24L222.31 7.24L222.31 7.24Q222.29 8.39 222.29 8.48L222.29 8.48L222.29 8.48Q222.29 9.32 222.28 10.30L222.28 10.30L222.28 10.30Q222.28 11.28 222.28 11.47ZM247.87 3.68L247.87 3.68L247.87 3.68Q247.87 3.64 247.89 3.60L247.89 3.60L247.89 3.60Q247.91 3.56 248.00 3.50L248.00 3.50L248.00 3.50Q248.09 3.44 248.23 3.44L248.23 3.44L248.61 3.44L248.61 3.44Q248.95 3.44 249.70 3.49L249.70 3.49L249.70 3.49Q250.45 3.53 251.65 3.53L251.65 3.53L251.65 3.53Q252.64 3.53 253.41 3.49L253.41 3.49L253.41 3.49Q254.18 3.46 254.83 3.46L254.83 3.46L254.83 3.46Q255.07 3.46 255.07 3.79L255.07 3.79L255.07 3.79Q255.07 3.92 255.04 4.11L255.04 4.11L255.04 4.11Q255.01 4.30 254.95 4.61L254.95 4.61L254.95 4.61Q254.90 4.93 254.87 5.22L254.87 5.22L254.87 5.22Q254.84 5.50 254.66 5.50L254.66 5.50L254.66 5.50Q254.46 5.50 254.46 5.22L254.46 5.22L254.46 5.22Q254.46 4.30 253.82 4.26L253.82 4.26L253.82 4.26Q251.71 4.09 251.30 4.09L251.30 4.09L251.30 4.09Q250.67 4.09 250.52 4.24L250.52 4.24L250.52 4.24Q250.38 4.40 250.36 4.87L250.36 4.87L250.36 4.87Q250.36 4.94 250.36 4.98L250.36 4.98L250.36 4.98Q250.32 5.74 250.32 7.32L250.32 7.32L250.32 7.32Q250.32 8.01 250.57 8.02L250.57 8.02L250.57 8.02Q250.64 8.02 250.76 8.03L250.76 8.03L250.76 8.03Q250.88 8.04 250.92 8.04L250.92 8.04L250.92 8.04Q251.02 8.04 251.22 8.03L251.22 8.03L251.22 8.03Q251.41 8.02 251.52 8.02L251.52 8.02L251.96 8.02L251.96 8.02Q252.80 8.02 253.07 7.97L253.07 7.97L253.07 7.97Q253.34 7.92 253.57 7.77L253.57 7.77L253.57 7.77Q253.69 7.69 253.76 7.57L253.76 7.57L253.76 7.57Q253.83 7.46 253.86 7.31L253.86 7.31L253.86 7.31Q253.89 7.15 253.93 7.08L253.93 7.08L253.93 7.08Q253.97 7.01 254.10 7.01L254.10 7.01L254.10 7.01Q254.23 7.01 254.25 7.06L254.25 7.06L254.25 7.06Q254.28 7.10 254.28 7.24L254.28 7.24L254.28 7.24Q254.28 7.34 254.22 7.73L254.22 7.73L254.22 7.73Q254.16 8.12 254.16 8.40L254.16 8.40L254.16 8.40Q254.16 8.67 254.20 9.05L254.20 9.05L254.20 9.05Q254.25 9.44 254.25 9.55L254.25 9.55L254.25 9.55Q254.25 9.77 254.20 9.83L254.20 9.83L254.20 9.83Q254.16 9.90 254.06 9.90L254.06 9.90L254.06 9.90Q253.82 9.90 253.76 9.55L253.76 9.55L253.76 9.55Q253.76 9.52 253.75 9.42L253.75 9.42L253.75 9.42Q253.74 9.32 253.73 9.28L253.73 9.28L253.73 9.28Q253.72 9.24 253.69 9.16L253.69 9.16L253.69 9.16Q253.67 9.09 253.64 9.04L253.64 9.04L253.64 9.04Q253.61 9.00 253.57 8.95L253.57 8.95L253.57 8.95Q253.53 8.90 253.46 8.88L253.46 8.88L253.46 8.88Q253.26 8.79 252.76 8.74L252.76 8.74L252.76 8.74Q252.25 8.68 252.10 8.68L252.10 8.68L250.88 8.68L250.88 8.68Q250.31 8.68 250.31 8.95L250.31 8.95L250.31 8.95Q250.31 9.35 250.29 9.96L250.29 9.96L250.29 9.96Q250.28 10.57 250.28 10.96L250.28 10.96L250.28 10.96Q250.28 11.06 250.27 11.25L250.27 11.25L250.27 11.25Q250.26 11.44 250.26 11.52L250.26 11.52L250.26 11.52Q250.26 11.80 250.32 12.08L250.32 12.08L250.32 12.08Q250.38 12.36 250.65 12.67L250.65 12.67L250.65 12.67Q250.92 12.98 251.38 12.98L251.38 12.98L251.38 12.98Q251.80 12.98 251.80 13.23L251.80 13.23L251.80 13.23Q251.80 13.27 251.78 13.33L251.78 13.33L251.78 13.33Q251.75 13.38 251.64 13.44L251.64 13.44L251.64 13.44Q251.54 13.50 251.37 13.50L251.37 13.50L251.37 13.50Q251.15 13.50 250.66 13.44L250.66 13.44L250.66 13.44Q250.18 13.38 250.01 13.38L250.01 13.38L250.01 13.38Q249.62 13.38 249.14 13.43L249.14 13.43L249.14 13.43Q248.65 13.47 248.32 13.47L248.32 13.47L248.32 13.47Q248.04 13.47 248.04 13.31L248.04 13.31L248.04 13.31Q248.04 13.13 248.10 13.09L248.10 13.09L248.10 13.09Q248.16 13.05 248.64 12.88L248.64 12.88L248.64 12.88Q249.00 12.75 249.09 12.13L249.09 12.13L249.09 12.13Q249.17 11.51 249.19 9.60L249.19 9.60L249.19 9.60Q249.19 8.86 249.19 8.44L249.19 8.44L249.19 8.44Q249.19 8.06 249.21 7.26L249.21 7.26L249.21 7.26Q249.23 6.45 249.23 6.01L249.23 6.01L249.23 5.19L249.23 5.19Q249.23 4.27 248.57 3.96L248.57 3.96L248.57 3.96Q248.47 3.92 248.33 3.90L248.33 3.90L248.33 3.90Q248.19 3.88 248.10 3.88L248.10 3.88L248.10 3.88Q248.01 3.88 247.94 3.83L247.94 3.83L247.94 3.83Q247.87 3.78 247.87 3.68ZM262.63 3.70L262.63 3.70L262.63 3.70Q262.63 3.47 263.03 3.47L263.03 3.47L265.36 3.47L265.36 3.47Q265.68 3.47 266.10 3.45L266.10 3.45L266.10 3.45Q266.52 3.43 266.76 3.43L266.76 3.43L266.76 3.43Q268.02 3.43 268.91 4.07L268.91 4.07L268.91 4.07Q269.81 4.70 269.81 5.78L269.81 5.78L269.81 5.78Q269.81 6.50 269.54 7.03L269.54 7.03L269.54 7.03Q269.26 7.57 268.93 7.81L268.93 7.81L268.93 7.81Q268.60 8.05 268.33 8.22L268.33 8.22L268.33 8.22Q268.06 8.40 268.06 8.46L268.06 8.46L268.06 8.46Q268.06 8.62 269.23 10.27L269.23 10.27L269.23 10.27Q270.41 11.91 270.84 12.38L270.84 12.38L270.84 12.38Q271.38 13.03 272.13 13.03L272.13 13.03L272.13 13.03Q272.33 13.03 272.33 13.20L272.33 13.20L272.33 13.20Q272.33 13.41 272.16 13.48L272.16 13.48L272.16 13.48Q271.99 13.55 271.29 13.55L271.29 13.55L271.29 13.55Q270.63 13.55 270.09 13.23L270.09 13.23L270.09 13.23Q269.39 12.82 267.72 10.09L267.72 10.09L267.72 10.09Q267.62 9.94 267.58 9.87L267.58 9.87L267.58 9.87Q266.91 8.78 266.55 8.78L266.55 8.78L266.25 8.78L265.40 8.78L265.40 8.78Q265.23 8.78 265.19 8.92L265.19 8.92L265.19 8.92Q265.16 9.06 265.16 9.77L265.16 9.77L265.16 9.77Q265.16 10.44 265.16 10.88L265.16 10.88L265.16 10.88Q265.16 11.31 265.17 11.43L265.17 11.43L265.17 11.43Q265.17 11.55 265.17 11.63L265.17 11.63L265.17 11.63Q265.17 11.70 265.17 11.75L265.17 11.75L265.17 11.75Q265.17 12.32 265.44 12.63L265.44 12.63L265.44 12.63Q265.71 12.95 266.04 13.00L266.04 13.00L266.04 13.00Q266.36 13.05 266.63 13.11L266.63 13.11L266.63 13.11Q266.90 13.17 266.90 13.31L266.90 13.31L266.90 13.31Q266.90 13.54 266.64 13.54L266.64 13.54L266.64 13.54Q266.63 13.54 265.68 13.49L265.68 13.49L265.68 13.49Q264.73 13.44 264.64 13.44L264.64 13.44L264.64 13.44Q264.24 13.44 263.68 13.47L263.68 13.47L263.68 13.47Q263.12 13.50 263.10 13.50L263.10 13.50L263.10 13.50Q262.81 13.50 262.81 13.27L262.81 13.27L262.81 13.27Q262.81 13.12 262.99 13.05L262.99 13.05L262.99 13.05Q263.17 12.99 263.40 12.96L263.40 12.96L263.40 12.96Q263.62 12.94 263.80 12.66L263.80 12.66L263.80 12.66Q263.98 12.38 263.98 11.86L263.98 11.86L263.98 11.86Q263.98 11.49 263.99 9.90L263.99 9.90L263.99 9.90Q264.00 8.30 264.00 7.45L264.00 7.45L264.00 7.45Q264.00 6.58 263.99 5.86L263.99 5.86L263.99 5.86Q263.98 5.14 263.98 5.08L263.98 5.08L263.98 5.08Q263.98 4.56 263.77 4.29L263.77 4.29L263.77 4.29Q263.56 4.02 263.31 3.98L263.31 3.98L263.31 3.98Q263.05 3.95 262.84 3.89L262.84 3.89L262.84 3.89Q262.63 3.84 262.63 3.70ZM265.16 5.54L265.16 5.94L265.16 5.94Q265.16 7.38 265.17 7.72L265.17 7.72L265.17 7.72Q265.19 8.06 265.27 8.12L265.27 8.12L265.27 8.12Q265.48 8.25 265.87 8.25L265.87 8.25L266.01 8.25L266.42 8.25L266.42 8.25Q267.61 8.25 268.12 7.70L268.12 7.70L268.12 7.70Q268.63 7.15 268.63 6.30L268.63 6.30L268.63 6.30Q268.63 5.43 267.95 4.72L267.95 4.72L267.95 4.72Q267.27 4.00 265.90 4.00L265.90 4.00L265.90 4.00Q265.38 4.00 265.27 4.28L265.27 4.28L265.27 4.28Q265.16 4.55 265.16 5.54L265.16 5.54ZM279.68 13.33L279.68 13.33L279.68 13.33Q279.68 13.13 279.89 13.06L279.89 13.06L279.89 13.06Q280.34 12.89 280.67 12.31L280.67 12.31L280.67 12.31Q281.01 11.73 282.34 8.83L282.34 8.83L282.34 8.83Q283.71 5.87 284.76 3.63L284.76 3.63L284.76 3.63Q284.86 3.42 284.94 3.36L284.94 3.36L284.94 3.36Q285.01 3.30 285.18 3.30L285.18 3.30L285.18 3.30Q285.31 3.30 285.35 3.36L285.35 3.36L285.35 3.36Q285.39 3.42 285.53 3.82L285.53 3.82L285.53 3.82Q285.61 4.06 285.68 4.23L285.68 4.23L285.68 4.23Q285.74 4.40 285.88 4.77L285.88 4.77L285.88 4.77Q286.02 5.15 286.19 5.56L286.19 5.56L286.19 5.56Q286.64 6.66 287.74 9.22L287.74 9.22L287.74 9.22Q288.83 11.77 288.93 11.98L288.93 11.98L288.93 11.98Q289.17 12.46 289.46 12.71L289.46 12.71L289.46 12.71Q289.76 12.95 289.98 12.97L289.98 12.97L289.98 12.97Q290.19 12.99 290.34 13.04L290.34 13.04L290.34 13.04Q290.49 13.09 290.49 13.26L290.49 13.26L290.49 13.26Q290.49 13.47 290.11 13.47L290.11 13.47L290.11 13.47Q289.95 13.47 289.51 13.43L289.51 13.43L289.51 13.43Q289.06 13.38 288.85 13.38L288.85 13.38L288.85 13.38Q288.58 13.38 288.16 13.41L288.16 13.41L288.16 13.41Q287.74 13.44 287.55 13.44L287.55 13.44L287.55 13.44Q287.11 13.44 286.99 13.40L286.99 13.40L286.99 13.40Q286.87 13.37 286.87 13.24L286.87 13.24L286.87 13.24Q286.87 13.15 286.99 13.08L286.99 13.08L286.99 13.08Q287.10 13.02 287.22 13.00L287.22 13.00L287.22 13.00Q287.35 12.98 287.46 12.87L287.46 12.87L287.46 12.87Q287.57 12.77 287.57 12.59L287.57 12.59L287.57 12.59Q287.57 12.28 287.22 11.33L287.22 11.33L287.22 11.33Q286.87 10.37 286.64 9.93L286.64 9.93L286.64 9.93Q286.51 9.69 286.06 9.69L286.06 9.69L286.06 9.69Q285.99 9.69 285.45 9.70L285.45 9.70L285.45 9.70Q284.90 9.72 284.37 9.72L284.37 9.72L283.63 9.72L283.63 9.72Q283.00 9.72 282.84 9.79L282.84 9.79L282.84 9.79Q282.67 9.86 282.55 10.12L282.55 10.12L282.55 10.12Q282.46 10.30 282.27 10.70L282.27 10.70L282.27 10.70Q282.07 11.10 282.00 11.26L282.00 11.26L282.00 11.26Q281.93 11.41 281.83 11.65L281.83 11.65L281.83 11.65Q281.72 11.90 281.69 12.05L281.69 12.05L281.69 12.05Q281.65 12.19 281.65 12.31L281.65 12.31L281.65 12.31Q281.65 12.63 281.81 12.80L281.81 12.80L281.81 12.80Q281.97 12.96 282.17 12.98L282.17 12.98L282.17 12.98Q282.37 13.01 282.53 13.06L282.53 13.06L282.53 13.06Q282.69 13.12 282.69 13.26L282.69 13.26L282.69 13.26Q282.69 13.36 282.65 13.40L282.65 13.40L282.65 13.40Q282.60 13.45 282.45 13.45L282.45 13.45L282.45 13.45Q282.37 13.45 281.97 13.45L281.97 13.45L281.97 13.45Q281.57 13.44 281.29 13.44L281.29 13.44L281.29 13.44Q280.98 13.44 280.60 13.47L280.60 13.47L280.60 13.47Q280.21 13.50 280.08 13.50L280.08 13.50L280.08 13.50Q279.68 13.50 279.68 13.33ZM283.19 8.71L283.19 8.71L283.19 8.71Q283.19 8.89 283.32 8.93L283.32 8.93L283.32 8.93Q283.44 8.97 283.91 8.97L283.91 8.97L284.34 8.97L285.67 8.96L285.67 8.96Q286.22 8.96 286.22 8.74L286.22 8.74L286.22 8.74Q286.22 8.55 285.53 7.01L285.53 7.01L285.53 7.01Q284.84 5.46 284.66 5.46L284.66 5.46L284.66 5.46Q284.54 5.46 283.86 7.01L283.86 7.01L283.86 7.01Q283.19 8.55 283.19 8.71ZM298.05 3.71L298.05 3.71L298.05 3.71Q298.05 3.50 298.30 3.50L298.30 3.50L298.30 3.50Q298.38 3.50 298.68 3.53L298.68 3.53L298.68 3.53Q298.98 3.56 299.04 3.56L299.04 3.56L299.04 3.56Q299.25 3.56 299.61 3.54L299.61 3.54L299.61 3.54Q299.98 3.53 300.09 3.53L300.09 3.53L300.09 3.53Q300.36 3.53 300.43 3.72L300.43 3.72L300.43 3.72Q300.59 4.09 301.03 5.03L301.03 5.03L301.03 5.03Q301.46 5.98 301.72 6.54L301.72 6.54L301.72 6.54Q301.98 7.10 302.39 7.97L302.39 7.97L302.39 7.97Q302.79 8.83 303.04 9.37L303.04 9.37L303.04 9.37Q303.30 9.91 303.57 10.46L303.57 10.46L303.57 10.46Q303.84 11.00 303.99 11.26L303.99 11.26L303.99 11.26Q304.14 11.52 304.18 11.52L304.18 11.52L304.18 11.52Q304.22 11.52 304.27 11.47L304.27 11.47L304.27 11.47Q304.32 11.42 304.37 11.34L304.37 11.34L304.37 11.34Q304.42 11.26 304.45 11.17L304.45 11.17L304.45 11.17Q304.49 11.09 304.55 10.96L304.55 10.96L304.55 10.96Q304.61 10.82 304.64 10.75L304.64 10.75L306.45 7.03L306.45 7.03Q306.75 6.40 306.99 5.89L306.99 5.89L306.99 5.89Q307.23 5.39 307.37 5.08L307.37 5.08L307.37 5.08Q307.51 4.77 307.61 4.55L307.61 4.55L307.61 4.55Q307.71 4.33 307.75 4.21L307.75 4.21L307.75 4.21Q307.80 4.10 307.83 4.04L307.83 4.04L307.83 4.04Q307.85 3.98 307.86 3.94L307.86 3.94L307.86 3.94Q307.87 3.91 307.89 3.88L307.89 3.88L307.89 3.88Q307.90 3.85 307.94 3.75L307.94 3.75L307.94 3.75Q307.97 3.65 308.01 3.62L308.01 3.62L308.01 3.62Q308.04 3.58 308.15 3.54L308.15 3.54L308.15 3.54Q308.25 3.50 308.42 3.50L308.42 3.50L308.42 3.50Q308.69 3.50 308.92 3.51L308.92 3.51L308.92 3.51Q309.15 3.53 309.62 3.53L309.62 3.53L309.62 3.53Q309.86 3.53 309.86 3.71L309.86 3.71L309.86 3.71Q309.86 3.85 309.77 3.91L309.77 3.91L309.77 3.91Q309.68 3.98 309.40 4.02L309.40 4.02L309.40 4.02Q309.05 4.06 308.91 4.37L308.91 4.37L308.91 4.37Q308.77 4.68 308.77 5.54L308.77 5.54L308.77 5.54Q308.77 7.43 308.85 8.97L308.85 8.97L308.85 8.97Q308.94 10.50 308.94 10.89L308.94 10.89L308.94 10.89Q308.94 12.29 309.16 12.68L309.16 12.68L309.16 12.68Q309.39 13.06 310.10 13.06L310.10 13.06L310.10 13.06Q310.20 13.06 310.28 13.13L310.28 13.13L310.28 13.13Q310.35 13.20 310.35 13.26L310.35 13.26L310.35 13.26Q310.35 13.34 310.34 13.38L310.34 13.38L310.34 13.38Q310.32 13.43 310.28 13.45L310.28 13.45L310.28 13.45Q310.24 13.48 310.20 13.48L310.20 13.48L310.20 13.48Q310.16 13.48 310.04 13.48L310.04 13.48L310.04 13.48Q309.62 13.48 309.22 13.45L309.22 13.45L309.22 13.45Q308.81 13.43 308.62 13.43L308.62 13.43L308.62 13.43Q308.22 13.43 307.80 13.46L307.80 13.46L307.80 13.46Q307.38 13.50 307.16 13.50L307.16 13.50L307.16 13.50Q306.91 13.50 306.91 13.30L306.91 13.30L306.91 13.30Q306.91 13.17 307.02 13.12L307.02 13.12L307.02 13.12Q307.13 13.06 307.28 13.05L307.28 13.05L307.28 13.05Q307.43 13.03 307.59 12.87L307.59 12.87L307.59 12.87Q307.75 12.71 307.82 12.39L307.82 12.39L307.82 12.39Q307.87 12.11 307.87 11.49L307.87 11.49L307.87 11.49Q307.87 11.05 307.85 10.42L307.85 10.42L307.85 10.42Q307.83 9.79 307.80 9.19L307.80 9.19L307.80 9.19Q307.78 8.60 307.75 8.07L307.75 8.07L307.75 8.07Q307.72 7.55 307.71 7.21L307.71 7.21L307.68 6.87L307.68 6.87Q307.68 6.27 307.55 6.27L307.55 6.27L307.55 6.27Q307.54 6.27 307.51 6.29L307.51 6.29L307.51 6.29Q307.48 6.30 307.46 6.33L307.46 6.33L307.46 6.33Q307.44 6.36 307.41 6.38L307.41 6.38L307.41 6.38Q307.38 6.41 307.36 6.47L307.36 6.47L307.36 6.47Q307.33 6.54 307.30 6.58L307.30 6.58L307.30 6.58Q307.27 6.62 307.23 6.70L307.23 6.70L307.23 6.70Q307.19 6.78 307.16 6.83L307.16 6.83L307.16 6.83Q307.13 6.89 307.08 6.99L307.08 6.99L307.08 6.99Q307.03 7.08 307.01 7.15L307.01 7.15L305.06 11.09L305.06 11.09Q304.72 11.77 304.35 12.56L304.35 12.56L304.35 12.56Q304.09 13.09 304.04 13.18L304.04 13.18L304.04 13.18Q303.98 13.27 303.90 13.27L303.90 13.27L303.90 13.27Q303.77 13.27 303.69 13.15L303.69 13.15L303.69 13.15Q303.60 13.03 303.44 12.63L303.44 12.63L303.44 12.63Q303.27 12.22 303.14 11.96L303.14 11.96L303.14 11.96Q300.58 6.75 300.51 6.65L300.51 6.65L300.51 6.65Q300.47 6.59 300.43 6.59L300.43 6.59L300.43 6.59Q300.31 6.59 300.31 7.15L300.31 7.15L300.31 7.15Q300.30 8.25 300.24 9.31L300.24 9.31L300.24 9.31Q300.19 10.37 300.19 10.85L300.19 10.85L300.19 11.48L300.19 11.48Q300.19 11.84 300.21 12.04L300.21 12.04L300.21 12.04Q300.23 12.24 300.32 12.49L300.32 12.49L300.32 12.49Q300.41 12.75 300.65 12.89L300.65 12.89L300.65 12.89Q300.89 13.03 301.27 13.08L301.27 13.08L301.27 13.08Q301.34 13.08 301.40 13.13L301.40 13.13L301.40 13.13Q301.46 13.17 301.46 13.23L301.46 13.23L301.46 13.23Q301.46 13.38 301.42 13.43L301.42 13.43L301.42 13.43Q301.38 13.48 301.25 13.48L301.25 13.48L301.25 13.48Q300.97 13.48 300.41 13.45L300.41 13.45L300.41 13.45Q299.85 13.43 299.80 13.43L299.80 13.43L299.80 13.43Q299.77 13.43 299.39 13.45L299.39 13.45L299.39 13.45Q299.01 13.47 298.65 13.47L298.65 13.47L298.65 13.47Q298.54 13.47 298.49 13.45L298.49 13.45L298.49 13.45Q298.44 13.44 298.40 13.39L298.40 13.39L298.40 13.39Q298.35 13.34 298.35 13.24L298.35 13.24L298.35 13.24Q298.35 13.13 298.48 13.09L298.48 13.09L298.48 13.09Q298.61 13.05 298.77 13.04L298.77 13.04L298.77 13.04Q298.93 13.03 299.12 12.82L299.12 12.82L299.12 12.82Q299.32 12.60 299.42 12.18L299.42 12.18L299.42 12.18Q299.49 11.87 299.59 9.74L299.59 9.74L299.59 9.74Q299.68 7.62 299.68 6.59L299.68 6.59L299.68 6.59Q299.68 5.19 299.41 4.66L299.41 4.66L299.41 4.66Q299.14 4.13 298.23 3.92L298.23 3.92L298.23 3.92Q298.05 3.88 298.05 3.71ZM317.91 3.65L317.91 3.65L317.91 3.65Q317.91 3.46 318.30 3.46L318.30 3.46L318.30 3.46Q318.36 3.46 318.49 3.47L318.49 3.47L318.49 3.47Q318.61 3.49 318.68 3.49L318.68 3.49L318.68 3.49Q318.72 3.49 320.00 3.52L320.00 3.52L320.00 3.52Q321.27 3.56 322.10 3.56L322.10 3.56L322.10 3.56Q322.39 3.56 323.55 3.53L323.55 3.53L323.55 3.53Q324.70 3.50 324.90 3.50L324.90 3.50L324.90 3.50Q325.16 3.50 325.16 3.82L325.16 3.82L325.16 3.82Q325.16 3.91 325.08 4.38L325.08 4.38L325.08 4.38Q325.00 4.84 325.00 5.25L325.00 5.25L325.00 5.25Q325.00 5.38 324.93 5.47L324.93 5.47L324.93 5.47Q324.86 5.56 324.77 5.56L324.77 5.56L324.77 5.56Q324.56 5.56 324.56 5.26L324.56 5.26L324.56 5.26Q324.56 4.89 324.32 4.58L324.32 4.58L324.32 4.58Q324.09 4.27 323.74 4.26L323.74 4.26L323.74 4.26Q322.48 4.16 321.80 4.16L321.80 4.16L321.44 4.16L321.44 4.16Q320.71 4.16 320.59 4.26L320.59 4.26L320.59 4.26Q320.47 4.37 320.45 5.01L320.45 5.01L320.45 5.01Q320.39 6.02 320.39 7.35L320.39 7.35L320.39 7.35Q320.39 8.05 320.66 8.06L320.66 8.06L321.01 8.06L321.59 8.06L322.03 8.06L322.03 8.06Q322.87 8.06 323.15 8.01L323.15 8.01L323.15 8.01Q323.43 7.95 323.65 7.80L323.65 7.80L323.65 7.80Q323.92 7.62 323.97 7.28L323.97 7.28L323.97 7.28Q324.02 7.04 324.17 7.04L324.17 7.04L324.17 7.04Q324.30 7.04 324.32 7.08L324.32 7.08L324.32 7.08Q324.35 7.13 324.35 7.27L324.35 7.27L324.35 7.27Q324.35 7.36 324.30 7.91L324.30 7.91L324.30 7.91Q324.24 8.46 324.24 8.74L324.24 8.74L324.24 8.74Q324.24 9.00 324.26 9.24L324.26 9.24L324.26 9.24Q324.28 9.48 324.28 9.59L324.28 9.59L324.28 9.59Q324.28 9.94 324.18 9.94L324.18 9.94L324.18 9.94Q323.97 9.94 323.88 9.60L323.88 9.60L323.88 9.60Q323.68 9.02 323.53 8.92L323.53 8.92L323.53 8.92Q323.23 8.72 322.18 8.72L322.18 8.72L322.18 8.72Q321.76 8.72 321.50 8.72L321.50 8.72L321.50 8.72Q321.24 8.72 321.17 8.71L321.17 8.71L321.17 8.71Q321.09 8.71 321.04 8.71L321.04 8.71L321.04 8.71Q320.99 8.71 320.95 8.71L320.95 8.71L320.95 8.71Q320.38 8.71 320.38 8.97L320.38 8.97L320.38 8.97Q320.38 9.38 320.36 9.99L320.36 9.99L320.36 9.99Q320.35 10.60 320.35 10.99L320.35 10.99L320.35 11.55L320.35 11.55Q320.35 12.56 320.68 12.66L320.68 12.66L320.68 12.66Q321.03 12.77 321.29 12.77L321.29 12.77L321.29 12.77Q322.34 12.77 323.13 12.67L323.13 12.67L323.13 12.67Q323.92 12.57 324.32 12.42L324.32 12.42L324.32 12.42Q324.72 12.28 324.98 12.10L324.98 12.10L324.98 12.10Q325.25 11.93 325.32 11.78L325.32 11.78L325.32 11.78Q325.40 11.63 325.48 11.54L325.48 11.54L325.48 11.54Q325.56 11.44 325.64 11.44L325.64 11.44L325.64 11.44Q325.81 11.44 325.81 11.68L325.81 11.68L325.81 11.68Q325.81 12.28 325.21 12.89L325.21 12.89L325.21 12.89Q324.60 13.51 324.16 13.51L324.16 13.51L324.16 13.51Q323.15 13.51 321.88 13.44L321.88 13.44L321.88 13.44Q320.61 13.37 320.31 13.37L320.31 13.37L320.31 13.37Q319.91 13.37 319.33 13.43L319.33 13.43L319.33 13.43Q318.74 13.50 318.40 13.50L318.40 13.50L318.40 13.50Q318.11 13.50 318.11 13.36L318.11 13.36L318.11 13.36Q318.11 13.23 318.11 13.19L318.11 13.19L318.11 13.19Q318.11 13.15 318.15 13.12L318.15 13.12L318.15 13.12Q318.19 13.09 318.24 13.08L318.24 13.08L318.24 13.08Q318.29 13.08 318.42 13.03L318.42 13.03L318.42 13.03Q318.56 12.99 318.71 12.92L318.71 12.92L318.71 12.92Q319.05 12.75 319.15 12.26L319.15 12.26L319.15 12.26Q319.26 11.77 319.26 10.21L319.26 10.21L319.26 8.47L319.26 8.47Q319.26 8.09 319.28 7.29L319.28 7.29L319.28 7.29Q319.30 6.50 319.30 6.05L319.30 6.05L319.30 6.05Q319.30 5.67 319.27 4.77L319.27 4.77L319.27 4.77Q319.26 4.37 318.92 4.14L318.92 4.14L318.92 4.14Q318.58 3.92 318.14 3.91L318.14 3.91L318.14 3.91Q317.91 3.91 317.91 3.65ZM333.37 3.71L333.37 3.71L333.37 3.71Q333.37 3.51 333.75 3.51L333.75 3.51L333.75 3.51Q333.83 3.51 334.29 3.54L334.29 3.54L334.29 3.54Q334.74 3.56 335.29 3.56L335.29 3.56L335.29 3.56Q335.68 3.56 336.07 3.54L336.07 3.54L336.07 3.54Q336.46 3.51 336.49 3.51L336.49 3.51L336.49 3.51Q336.62 3.51 336.65 3.55L336.65 3.55L336.65 3.55Q336.69 3.58 336.69 3.68L336.69 3.68L336.69 3.68Q336.69 3.77 336.39 3.92L336.39 3.92L336.39 3.92Q336.08 4.07 336.08 4.34L336.08 4.34L336.08 4.34Q336.08 4.47 336.14 4.65L336.14 4.65L336.14 4.65Q336.20 4.83 336.36 5.22L336.36 5.22L336.36 5.22Q336.53 5.61 336.72 6.03L336.72 6.03L336.72 6.03Q336.91 6.45 337.30 7.33L337.30 7.33L337.30 7.33Q337.69 8.20 338.07 9.07L338.07 9.07L338.07 9.07Q338.17 9.30 338.36 9.74L338.36 9.74L338.36 9.74Q338.55 10.18 338.67 10.46L338.67 10.46L338.67 10.46Q338.79 10.74 338.93 11.05L338.93 11.05L338.93 11.05Q339.07 11.37 339.16 11.52L339.16 11.52L339.16 11.52Q339.25 11.68 339.29 11.68L339.29 11.68L339.29 11.68Q339.35 11.68 339.74 10.81L339.74 10.81L339.74 10.81Q340.13 9.94 340.44 9.17L340.44 9.17L340.44 9.17Q340.49 9.04 340.57 8.89L340.57 8.89L340.57 8.89Q340.65 8.74 340.68 8.63L340.68 8.63L340.68 8.63Q340.72 8.53 340.72 8.41L340.72 8.41L340.72 8.41Q340.72 8.25 339.88 6.36L339.88 6.36L339.88 6.36Q339.04 4.48 338.80 4.21L338.80 4.21L338.80 4.21Q338.74 4.14 338.69 4.10L338.69 4.10L338.69 4.10Q338.63 4.06 338.58 4.02L338.58 4.02L338.58 4.02Q338.53 3.99 338.50 3.97L338.50 3.97L338.50 3.97Q338.46 3.95 338.41 3.94L338.41 3.94L338.41 3.94Q338.35 3.93 338.33 3.93L338.33 3.93L338.33 3.93Q338.31 3.93 338.25 3.93L338.25 3.93L338.25 3.93Q338.18 3.92 338.17 3.92L338.17 3.92L338.17 3.92Q337.78 3.88 337.69 3.84L337.69 3.84L337.69 3.84Q337.61 3.81 337.61 3.70L337.61 3.70L337.61 3.70Q337.61 3.50 338.02 3.50L338.02 3.50L338.02 3.50Q338.10 3.50 338.56 3.53L338.56 3.53L338.56 3.53Q339.02 3.56 339.56 3.56L339.56 3.56L339.56 3.56Q339.58 3.56 339.93 3.53L339.93 3.53L339.93 3.53Q340.28 3.50 340.48 3.50L340.48 3.50L340.48 3.50Q340.90 3.50 340.90 3.61L340.90 3.61L340.90 3.61Q340.90 3.70 340.75 3.78L340.75 3.78L340.75 3.78Q340.59 3.86 340.45 4.00L340.45 4.00L340.45 4.00Q340.30 4.13 340.30 4.33L340.30 4.33L340.30 4.33Q340.30 4.59 340.73 5.57L340.73 5.57L340.73 5.57Q340.76 5.63 340.92 6.03L340.92 6.03L340.92 6.03Q341.08 6.44 341.21 6.71L341.21 6.71L341.21 6.71Q341.33 6.99 341.39 6.99L341.39 6.99L341.39 6.99Q341.50 6.99 341.95 5.76L341.95 5.76L341.95 5.76Q342.40 4.54 342.40 4.31L342.40 4.31L342.40 4.31Q342.40 4.06 342.19 3.96L342.19 3.96L342.19 3.96Q341.98 3.85 341.77 3.80L341.77 3.80L341.77 3.80Q341.56 3.75 341.56 3.64L341.56 3.64L341.56 3.64Q341.56 3.49 341.87 3.49L341.87 3.49L341.87 3.49Q341.95 3.49 342.29 3.50L342.29 3.50L342.29 3.50Q342.62 3.51 342.76 3.51L342.76 3.51L343 3.51L343 3.51Q343.20 3.51 343.74 3.47L343.74 3.47L343.87 3.47L343.87 3.47Q344.05 3.47 344.05 3.61L344.05 3.61L344.05 3.61Q344.05 3.75 343.78 3.84L343.78 3.84L343.78 3.84Q343.52 3.92 343.42 4.02L343.42 4.02L343.42 4.02Q343.20 4.24 343.03 4.66L343.03 4.66L343.03 4.66Q342.73 5.38 342.33 6.33L342.33 6.33L342.33 6.33Q341.91 7.31 341.84 7.50L341.84 7.50L341.84 7.50Q341.77 7.70 341.77 7.85L341.77 7.85L341.77 7.85Q341.77 7.97 342.62 9.87L342.62 9.87L342.62 9.87Q343.48 11.77 343.63 11.77L343.63 11.77L343.63 11.77Q343.80 11.77 345.26 8.24L345.26 8.24L345.26 8.24Q346.72 4.70 346.72 4.35L346.72 4.35L346.72 4.35Q346.72 4.13 346.56 4.01L346.56 4.01L346.56 4.01Q346.40 3.89 346.21 3.87L346.21 3.87L346.21 3.87Q346.01 3.85 345.85 3.80L345.85 3.80L345.85 3.80Q345.69 3.75 345.69 3.64L345.69 3.64L345.69 3.64Q345.69 3.54 345.73 3.52L345.73 3.52L345.73 3.52Q345.77 3.50 345.95 3.50L345.95 3.50L345.95 3.50Q346.00 3.50 346.28 3.51L346.28 3.51L346.28 3.51Q346.56 3.51 346.84 3.51L346.84 3.51L346.84 3.51Q347.09 3.51 347.40 3.50L347.40 3.50L347.40 3.50Q347.72 3.49 348.08 3.49L348.08 3.49L348.08 3.49Q348.36 3.49 348.36 3.68L348.36 3.68L348.36 3.68Q348.36 3.78 348.29 3.84L348.29 3.84L348.29 3.84Q348.21 3.89 348.05 3.98L348.05 3.98L348.05 3.98Q347.90 4.06 347.79 4.17L347.79 4.17L347.79 4.17Q347.72 4.24 347.67 4.31L347.67 4.31L347.67 4.31Q347.62 4.38 347.56 4.49L347.56 4.49L347.56 4.49Q347.51 4.59 347.47 4.66L347.47 4.66L347.47 4.66Q347.44 4.73 347.36 4.91L347.36 4.91L347.36 4.91Q347.28 5.08 347.24 5.18L347.24 5.18L347.24 5.18Q346.16 7.59 344.83 10.58L344.83 10.58L344.83 10.58Q343.77 13.01 343.57 13.41L343.57 13.41L343.57 13.41Q343.38 13.82 343.27 13.82L343.27 13.82L343.27 13.82Q343.20 13.82 343.10 13.64L343.10 13.64L343.10 13.64Q343 13.47 342.83 13.05L342.83 13.05L342.83 13.05Q342.65 12.64 342.62 12.57L342.62 12.57L342.62 12.57Q342.48 12.26 342.25 11.72L342.25 11.72L342.25 11.72Q342.02 11.17 341.86 10.79L341.86 10.79L341.86 10.79Q341.70 10.42 341.53 10.02L341.53 10.02L341.53 10.02Q341.36 9.63 341.25 9.43L341.25 9.43L341.25 9.43Q341.14 9.23 341.10 9.23L341.10 9.23L341.10 9.23Q340.96 9.23 340.15 11.16L340.15 11.16L340.15 11.16Q339.35 13.09 339.29 13.31L339.29 13.31L339.29 13.31Q339.28 13.37 339.25 13.43L339.25 13.43L339.25 13.43Q339.23 13.48 339.22 13.52L339.22 13.52L339.22 13.52Q339.21 13.57 339.19 13.61L339.19 13.61L339.19 13.61Q339.18 13.65 339.16 13.68L339.16 13.68L339.16 13.68Q339.15 13.71 339.14 13.73L339.14 13.73L339.14 13.73Q339.14 13.76 339.12 13.78L339.12 13.78L339.12 13.78Q339.11 13.80 339.09 13.82L339.09 13.82L339.09 13.82Q339.08 13.83 339.07 13.84L339.07 13.84L339.07 13.84Q339.05 13.85 339.04 13.85L339.04 13.85L339.04 13.85Q339.02 13.86 339.00 13.86L339.00 13.86L339.00 13.86Q338.87 13.86 338.69 13.46L338.69 13.46L338.69 13.46Q338.51 13.06 338.03 11.89L338.03 11.89L338.03 11.89Q337.55 10.72 337.06 9.65L337.06 9.65L337.06 9.65Q336.25 7.87 335.34 5.63L335.34 5.63L335.34 5.63Q335.08 4.96 334.77 4.57L334.77 4.57L334.77 4.57Q334.46 4.19 334.22 4.09L334.22 4.09L334.22 4.09Q333.98 3.99 333.79 3.98L333.79 3.98L333.79 3.98Q333.59 3.96 333.48 3.92L333.48 3.92L333.48 3.92Q333.37 3.88 333.37 3.71ZM355.91 8.69L355.91 8.69L355.91 8.69Q355.91 6.34 357.32 4.84L357.32 4.84L357.32 4.84Q358.74 3.33 361.33 3.33L361.33 3.33L361.33 3.33Q362.53 3.33 363.50 3.68L363.50 3.68L363.50 3.68Q364.46 4.03 365.02 4.54L365.02 4.54L365.02 4.54Q365.58 5.05 365.96 5.71L365.96 5.71L365.96 5.71Q366.34 6.37 366.48 6.92L366.48 6.92L366.48 6.92Q366.62 7.48 366.62 7.95L366.62 7.95L366.62 7.95Q366.62 9.86 365.88 11.16L365.88 11.16L365.88 11.16Q365.13 12.47 363.92 13.07L363.92 13.07L363.92 13.07Q362.71 13.66 361.13 13.66L361.13 13.66L361.13 13.66Q359.46 13.66 358.25 12.94L358.25 12.94L358.25 12.94Q357.04 12.21 356.48 11.10L356.48 11.10L356.48 11.10Q355.91 10.00 355.91 8.69ZM357.14 7.98L357.14 7.98L357.14 7.98Q357.14 8.54 357.29 9.19L357.29 9.19L357.29 9.19Q357.45 9.84 357.80 10.54L357.80 10.54L357.80 10.54Q358.15 11.23 358.65 11.78L358.65 11.78L358.65 11.78Q359.14 12.33 359.91 12.69L359.91 12.69L359.91 12.69Q360.67 13.05 361.58 13.05L361.58 13.05L361.58 13.05Q362.05 13.05 362.58 12.90L362.58 12.90L362.58 12.90Q363.10 12.75 363.62 12.45L363.62 12.45L363.62 12.45Q364.14 12.14 364.55 11.70L364.55 11.70L364.55 11.70Q364.95 11.26 365.21 10.62L365.21 10.62L365.21 10.62Q365.47 9.98 365.47 9.24L365.47 9.24L365.47 9.24Q365.47 6.71 364.14 5.30L364.14 5.30L364.14 5.30Q362.81 3.89 360.85 3.89L360.85 3.89L360.85 3.89Q359.31 3.89 358.23 4.93L358.23 4.93L358.23 4.93Q357.14 5.96 357.14 7.98ZM374.51 3.70L374.51 3.70L374.51 3.70Q374.51 3.47 374.92 3.47L374.92 3.47L377.24 3.47L377.24 3.47Q377.57 3.47 377.99 3.45L377.99 3.45L377.99 3.45Q378.41 3.43 378.64 3.43L378.64 3.43L378.64 3.43Q379.90 3.43 380.80 4.07L380.80 4.07L380.80 4.07Q381.70 4.70 381.70 5.78L381.70 5.78L381.70 5.78Q381.70 6.50 381.42 7.03L381.42 7.03L381.42 7.03Q381.15 7.57 380.82 7.81L380.82 7.81L380.82 7.81Q380.49 8.05 380.22 8.22L380.22 8.22L380.22 8.22Q379.95 8.40 379.95 8.46L379.95 8.46L379.95 8.46Q379.95 8.62 381.12 10.27L381.12 10.27L381.12 10.27Q382.30 11.91 382.73 12.38L382.73 12.38L382.73 12.38Q383.26 13.03 384.02 13.03L384.02 13.03L384.02 13.03Q384.22 13.03 384.22 13.20L384.22 13.20L384.22 13.20Q384.22 13.41 384.05 13.48L384.05 13.48L384.05 13.48Q383.88 13.55 383.18 13.55L383.18 13.55L383.18 13.55Q382.52 13.55 381.98 13.23L381.98 13.23L381.98 13.23Q381.28 12.82 379.61 10.09L379.61 10.09L379.61 10.09Q379.51 9.94 379.47 9.87L379.47 9.87L379.47 9.87Q378.80 8.78 378.43 8.78L378.43 8.78L378.14 8.78L377.29 8.78L377.29 8.78Q377.12 8.78 377.08 8.92L377.08 8.92L377.08 8.92Q377.05 9.06 377.05 9.77L377.05 9.77L377.05 9.77Q377.05 10.44 377.05 10.88L377.05 10.88L377.05 10.88Q377.05 11.31 377.06 11.43L377.06 11.43L377.06 11.43Q377.06 11.55 377.06 11.63L377.06 11.63L377.06 11.63Q377.06 11.70 377.06 11.75L377.06 11.75L377.06 11.75Q377.06 12.32 377.33 12.63L377.33 12.63L377.33 12.63Q377.59 12.95 377.92 13.00L377.92 13.00L377.92 13.00Q378.25 13.05 378.52 13.11L378.52 13.11L378.52 13.11Q378.78 13.17 378.78 13.31L378.78 13.31L378.78 13.31Q378.78 13.54 378.53 13.54L378.53 13.54L378.53 13.54Q378.52 13.54 377.57 13.49L377.57 13.49L377.57 13.49Q376.61 13.44 376.53 13.44L376.53 13.44L376.53 13.44Q376.12 13.44 375.56 13.47L375.56 13.47L375.56 13.47Q375.00 13.50 374.99 13.50L374.99 13.50L374.99 13.50Q374.70 13.50 374.70 13.27L374.70 13.27L374.70 13.27Q374.70 13.12 374.88 13.05L374.88 13.05L374.88 13.05Q375.06 12.99 375.28 12.96L375.28 12.96L375.28 12.96Q375.51 12.94 375.69 12.66L375.69 12.66L375.69 12.66Q375.87 12.38 375.87 11.86L375.87 11.86L375.87 11.86Q375.87 11.49 375.88 9.90L375.88 9.90L375.88 9.90Q375.89 8.30 375.89 7.45L375.89 7.45L375.89 7.45Q375.89 6.58 375.88 5.86L375.88 5.86L375.88 5.86Q375.87 5.14 375.87 5.08L375.87 5.08L375.87 5.08Q375.87 4.56 375.66 4.29L375.66 4.29L375.66 4.29Q375.45 4.02 375.19 3.98L375.19 3.98L375.19 3.98Q374.93 3.95 374.72 3.89L374.72 3.89L374.72 3.89Q374.51 3.84 374.51 3.70ZM377.05 5.54L377.05 5.94L377.05 5.94Q377.05 7.38 377.06 7.72L377.06 7.72L377.06 7.72Q377.08 8.06 377.16 8.12L377.16 8.12L377.16 8.12Q377.37 8.25 377.76 8.25L377.76 8.25L377.90 8.25L378.31 8.25L378.31 8.25Q379.50 8.25 380.01 7.70L380.01 7.70L380.01 7.70Q380.52 7.15 380.52 6.30L380.52 6.30L380.52 6.30Q380.52 5.43 379.84 4.72L379.84 4.72L379.84 4.72Q379.16 4.00 377.79 4.00L377.79 4.00L377.79 4.00Q377.27 4.00 377.16 4.28L377.16 4.28L377.16 4.28Q377.05 4.55 377.05 5.54L377.05 5.54ZM391.57 3.71L391.57 3.71L391.57 3.71Q391.57 3.53 391.96 3.53L391.96 3.53L391.96 3.53Q392.10 3.53 392.60 3.54L392.60 3.54L392.60 3.54Q393.11 3.56 393.54 3.56L393.54 3.56L393.54 3.56Q393.79 3.56 394.00 3.54L394.00 3.54L394.00 3.54Q394.21 3.53 394.74 3.53L394.74 3.53L394.74 3.53Q394.98 3.53 394.98 3.71L394.98 3.71L394.98 3.71Q394.98 3.77 394.91 3.81L394.91 3.81L394.91 3.81Q394.84 3.85 394.71 3.91L394.71 3.91L394.71 3.91Q394.58 3.96 394.49 4.00L394.49 4.00L394.49 4.00Q394.06 4.26 394.06 5.71L394.06 5.71L394.06 5.71Q394.06 6.47 394.04 7.17L394.04 7.17L394.04 7.17Q394.02 7.87 394.02 7.90L394.02 7.90L394.02 7.90Q394.02 8.19 394.14 8.19L394.14 8.19L394.14 8.19Q394.24 8.19 395.26 7.36L395.26 7.36L395.26 7.36Q396.28 6.52 397.29 5.55L397.29 5.55L397.29 5.55Q398.30 4.58 398.30 4.27L398.30 4.27L398.30 4.27Q398.30 4.19 398.26 4.12L398.26 4.12L398.26 4.12Q398.22 4.06 398.12 4.02L398.12 4.02L398.12 4.02Q398.02 3.98 397.95 3.96L397.95 3.96L397.95 3.96Q397.88 3.93 397.75 3.91L397.75 3.91L397.75 3.91Q397.63 3.89 397.60 3.88L397.60 3.88L397.60 3.88Q397.45 3.85 397.45 3.68L397.45 3.68L397.45 3.68Q397.45 3.53 397.67 3.53L397.67 3.53L397.67 3.53Q397.70 3.53 397.82 3.54L397.82 3.54L397.82 3.54Q397.94 3.54 398.02 3.54L398.02 3.54L398.02 3.54Q398.05 3.54 398.35 3.56L398.35 3.56L398.35 3.56Q398.65 3.57 398.86 3.57L398.86 3.57L400.60 3.53L400.60 3.53Q400.88 3.53 400.88 3.71L400.88 3.71L400.88 3.71Q400.88 3.81 400.79 3.86L400.79 3.86L400.79 3.86Q400.71 3.91 400.47 3.98L400.47 3.98L400.47 3.98Q400.23 4.05 400.06 4.12L400.06 4.12L400.06 4.12Q399.99 4.14 399.38 4.54L399.38 4.54L399.38 4.54Q399.25 4.62 397.80 5.84L397.80 5.84L397.80 5.84Q396.75 6.73 395.36 7.90L395.36 7.90L395.21 8.09L395.21 8.09Q395.21 8.16 395.36 8.32L395.36 8.32L395.36 8.32Q396.02 8.97 397.07 10.01L397.07 10.01L397.07 10.01Q399.01 11.94 399.59 12.42L399.59 12.42L399.59 12.42Q400.16 12.91 400.68 12.99L400.68 12.99L400.68 12.99Q401.09 13.05 401.14 13.16L401.14 13.16L401.14 13.16Q401.16 13.19 401.16 13.24L401.16 13.24L401.16 13.24Q401.16 13.37 401.04 13.40L401.04 13.40L401.04 13.40Q400.92 13.43 400.34 13.43L400.34 13.43L398.99 13.43L398.99 13.43Q398.89 13.43 398.84 13.41L398.84 13.41L398.84 13.41Q398.79 13.40 398.74 13.37L398.74 13.37L398.74 13.37Q398.69 13.34 398.62 13.25L398.62 13.25L398.62 13.25Q398.54 13.16 398.43 13.04L398.43 13.04L398.43 13.04Q398.33 12.92 398.11 12.68L398.11 12.68L398.11 12.68Q397.89 12.43 397.63 12.17L397.63 12.17L397.63 12.17Q394.66 9.16 394.51 9.03L394.51 9.03L394.51 9.03Q394.35 8.90 394.24 8.90L394.24 8.90L394.24 8.90Q394.04 8.90 394.04 9.28L394.04 9.28L394.04 9.32L394.04 9.32Q394.04 9.37 394.05 9.45L394.05 9.45L394.05 9.45Q394.06 9.53 394.06 9.65L394.06 9.65L394.06 9.65Q394.06 9.76 394.06 9.95L394.06 9.95L394.06 9.95Q394.06 10.14 394.06 10.36L394.06 10.36L394.06 10.36Q394.06 12.19 394.27 12.57L394.27 12.57L394.27 12.57Q394.53 13.02 395.21 13.02L395.21 13.02L395.21 13.02Q395.23 13.02 395.26 13.03L395.26 13.03L395.26 13.03Q395.29 13.03 395.32 13.03L395.32 13.03L395.32 13.03Q395.42 13.03 395.51 13.08L395.51 13.08L395.51 13.08Q395.61 13.13 395.61 13.19L395.61 13.19L395.61 13.19Q395.61 13.34 395.54 13.39L395.54 13.39L395.54 13.39Q395.46 13.44 395.26 13.44L395.26 13.44L395.26 13.44Q394.84 13.44 394.49 13.41L394.49 13.41L394.49 13.41Q394.13 13.38 393.93 13.38L393.93 13.38L393.93 13.38Q393.54 13.38 393.08 13.42L393.08 13.42L393.08 13.42Q392.62 13.45 392.39 13.45L392.39 13.45L392.39 13.45Q391.89 13.45 391.89 13.30L391.89 13.30L391.89 13.24L391.89 13.24Q391.89 13.15 392.02 13.11L392.02 13.11L392.02 13.11Q392.15 13.08 392.35 13.02L392.35 13.02L392.35 13.02Q392.55 12.96 392.66 12.85L392.66 12.85L392.66 12.85Q392.85 12.66 392.90 11.95L392.90 11.95L392.90 11.95Q392.95 11.24 392.95 9.69L392.95 9.69L392.95 7.81L392.95 7.81Q392.95 7.63 392.94 7.12L392.94 7.12L392.94 7.12Q392.92 6.61 392.92 6.30L392.92 6.30L392.92 5.66L392.92 5.66Q392.92 4.94 392.88 4.63L392.88 4.63L392.88 4.63Q392.84 4.30 392.53 4.12L392.53 4.12L392.53 4.12Q392.21 3.93 391.86 3.92L391.86 3.92L391.86 3.92Q391.57 3.91 391.57 3.71Z"></path></g></svg>