<svg xmlns="http://www.w3.org/2000/svg" data-v-29081953="" viewBox="126 80 50 160" style="&#10;    width: 300px;&#10;    height: 200px;&#10;"><!----><defs data-v-29081953=""><!----></defs><rect data-v-29081953="" fill="transparent" x="0" y="0" width="300px" height="300px" class="logo-background-square"/><!----><defs data-v-29081953=""><linearGradient data-v-29081953="" gradientTransform="rotate(25)" id="621d14c1-f2a5-47b3-8f3d-86e9ad8a8aea" x1="0%" y1="0%" x2="100%" y2="0%"><stop data-v-29081953="" offset="0%" stop-color="#21690F" stop-opacity="1"/><stop data-v-29081953="" offset="100%" stop-color="#88C848" stop-opacity="1"/></linearGradient></defs><g data-v-29081953="" id="feb0a7d5-0644-4eff-8f5b-f856b0cbee29" fill="url(#621d14c1-f2a5-47b3-8f3d-86e9ad8a8aea)" stroke="none" transform="matrix(2.5,0,0,2.5,25,25)"><path d="M35 34.9C20.9 41.4 11.1 55.6 11.1 72h3.8c0-17.3 12-31.9 28.1-35.9-15.5 4.6-26.8 19-26.8 35.9h3.5c0-17.6 13.4-32.1 30.5-33.8C33.9 40.8 21.4 54.9 21.4 72h3.3c0-17.1 13.9-31 31-31h1.1c-16.8.4-30.3 14.2-30.3 31h3c0-15.4 12.5-28 28-28 1.6 0 3.2.1 4.7.4-.9-.1-1.9-.2-2.9-.2C44 44.3 31.6 56.7 31.6 72h2.8c0-13.8 11.2-24.9 24.9-24.9 2.7 0 5.3.4 7.7 1.2-1.9-.5-3.8-.7-5.8-.7-13.5 0-24.4 11-24.4 24.4h2.5c0-12.1 9.8-21.9 21.9-21.9 3.5 0 6.8.8 9.8 2.3-2.5-1-5.1-1.6-7.9-1.6-11.7 0-21.2 9.5-21.2 21.2h2.2c0-10.4 8.5-18.9 18.9-18.9 4.1 0 7.8 1.3 10.9 3.5-2.7-1.6-5.8-2.5-9.1-2.5C55 54.1 47 62.1 47 72h2c0-8.8 7.1-15.9 15.9-15.9 4.4 0 8.4 1.8 11.3 4.7-2.6-2.2-5.8-3.5-9.4-3.5-8.1 0-14.7 6.6-14.7 14.7h1.8c0-7.1 5.8-12.9 12.9-12.9 4.5 0 8.5 2.3 10.8 5.9-2.1-2.6-5.3-4.4-8.9-4.4-6.3 0-11.4 5.1-11.4 11.4h1.5c0-5.5 4.4-9.9 9.9-9.9 4.5 0 8.3 3 9.5 7.1-1.2-3.1-4.1-5.3-7.6-5.3-4.5 0-8.1 3.6-8.1 8.1h1.2c0-3.8 3.1-6.9 6.9-6.9 3.1 0 5.7 2.1 6.6 4.9-.8-1.7-2.5-2.9-4.5-2.9-2.7 0-4.9 2.2-4.9 4.9h1c0-2.1 1.7-3.9 3.9-3.9s3.9 1.7 3.9 3.9H94c0-24.3-19.7-44-44-44S6 47.7 6 72h4c0-16.7 10.3-31.1 25-37.1z"/></g><!----></svg>